<?xml version="1.0" encoding="UTF-8" standalone="no"?>
<svg
    role="img"
    xmlns="http://www.w3.org/2000/svg"
    width="1000mm"
    height="1000mm"
    viewBox="0 0 1000 1000"
    style="max-width:1.6em; height: auto;">

    <path
        id="path"
        style="opacity:1;vector-effect:none;fill:#000000;fill-opacity:1;"
        d="M 75 0C 75 0 75 0 75 0C 33 0 0 33 0 75C 0 75 0 925 0 925C 0 967 33 1000 75 1000C 75 1000 925 1000 925 1000C 967 1000 1000 967 1000 925C 1000 925 1000 75 1000 75C 1000 33 967 0 925 0C 925 0 75 0 75 0M 75 50C 75 50 925 50 925 50C 939 50 950 61 950 75C 950 75 950 925 950 925C 950 939 939 950 925 950C 925 950 75 950 75 950C 61 950 50 939 50 925C 50 925 50 75 50 75C 50 61 61 50 75 50 M 768 570C 735 570 708 597 707 632C 707 633 707 633 707 633C 707 633 707 634 707 634C 707 634 707 685 707 685C 707 685 831 685 831 685C 831 685 831 634 831 634C 831 633 831 633 830 633C 830 632 830 632 830 632C 830 631 830 630 830 629C 830 629 830 629 830 629C 827 595 801 570 769 570C 769 570 768 570 768 570C 768 570 768 570 768 570M 375 550C 458 571 458 575 500 575C 542 575 547 571 630 550C 632 550 634 550 635 550C 621 573 613 600 612 629C 612 629 612 630 612 631C 612 631 612 631 612 632C 612 632 612 632 612 633C 612 633 612 633 612 633C 612 633 612 656 612 656C 592 671 579 694 579 721C 579 721 579 871 579 871C 579 881 581 891 584 900C 584 900 250 900 250 900C 208 900 175 867 175 825C 175 825 175 750 175 750C 175 625 250 550 375 550C 375 550 375 550 375 550M 769 520C 828 520 877 568 880 627C 880 629 881 631 881 633C 881 633 881 633 881 634C 881 634 881 634 881 634C 881 634 881 685 881 685C 899 687 913 703 913 722C 913 722 913 871 913 871C 913 872 913 873 913 873C 912 893 896 909 876 909C 876 909 661 909 661 909C 641 909 624 892 624 871C 624 871 624 722 624 722C 624 721 624 721 624 720C 625 702 639 687 657 685C 657 685 657 633 657 633C 657 633 657 633 657 633C 657 633 657 633 657 633C 657 571 706 521 767 520C 768 520 768 520 769 520C 769 520 769 520 769 520M 500 118C 550 118 597 138 633 173C 668 208 688 256 688 306C 687 409 604 493 500 493C 396 493 312 409 312 306C 312 256 332 208 367 173C 403 138 450 118 500 118C 500 118 500 118 500 118"
        transform="">
    </path>
</svg>