<svg version="1.1" xmlns="http://www.w3.org/2000/svg" viewBox="0 0 1519.6442407191769 523.5803326359353" width="1519.6442407191769" height="523.5803326359353">
  <!-- svg-source:excalidraw -->
  
  <defs>
    <style class="style-fonts">
      @font-face {
        font-family: "Virgil";
        src: url("https://excalidraw.com/Virgil.woff2");
      }
      @font-face {
        font-family: "Cascadia";
        src: url("https://excalidraw.com/Cascadia.woff2");
      }
      @font-face {
        font-family: "Assistant";
        src: url("https://excalidraw.com/Assistant-Regular.woff2");
      }
    </style>
    
  </defs>
  <rect x="0" y="0" width="1519.6442407191769" height="523.5803326359353" fill="#ffffff"></rect><g transform="translate(571.9253292506185 63.53478839620311) rotate(0 180.39999389648438 16.799999999999955)"><text x="180.39999389648438" y="27.0375" font-family="Cascadia, Segoe UI Emoji" font-size="28px" fill="#1e1e1e" text-anchor="middle" style="white-space: pre;" direction="ltr" dominant-baseline="alphabetic">K8S cluster (microk8s)</text></g><g stroke-linecap="round" transform="translate(556.4771970757258 10) rotate(0 476.5835218217255 251.79016631796765)"><path d="M32 0 C380.85 1.07, 731.01 0.64, 921.17 0 M32 0 C236.75 -3.37, 440.93 -3, 921.17 0 M921.17 0 C943.14 -0.26, 954.47 10.59, 953.17 32 M921.17 0 C943.25 -1.53, 951.22 10.65, 953.17 32 M953.17 32 C952.31 198.43, 951.44 365.18, 953.17 471.58 M953.17 32 C951.52 172.75, 952.16 312.61, 953.17 471.58 M953.17 471.58 C952.23 491.36, 944.26 505.38, 921.17 503.58 M953.17 471.58 C954.7 492.87, 940.42 504.8, 921.17 503.58 M921.17 503.58 C740.53 500.61, 557.68 500.82, 32 503.58 M921.17 503.58 C585.64 503.52, 250.31 502.8, 32 503.58 M32 503.58 C10.07 502.43, -0.7 491.9, 0 471.58 M32 503.58 C9.82 502.19, -0.3 491.02, 0 471.58 M0 471.58 C-2.16 383.01, -1.43 295.82, 0 32 M0 471.58 C0.52 333.49, 0.24 195.06, 0 32 M0 32 C-1.27 9, 10.25 -0.52, 32 0 M0 32 C2.05 12.65, 9.49 -1.24, 32 0" stroke="#1e1e1e" stroke-width="1" fill="none"></path></g><g stroke-linecap="round" transform="translate(586.4335543855279 131.58305962633995) rotate(0 105.619812760081 72.50173587768279)"><path d="M32 0 C76.46 -0.98, 124.41 -2.43, 179.24 0 M32 0 C72.25 0.28, 110.91 1.14, 179.24 0 M179.24 0 C200.96 -1.36, 210.36 11.72, 211.24 32 M179.24 0 C200.58 -0.04, 211.57 9.06, 211.24 32 M211.24 32 C211.9 58.76, 210.94 83.53, 211.24 113 M211.24 32 C212.46 59.74, 210.79 88.2, 211.24 113 M211.24 113 C210.97 133.04, 201.06 145.62, 179.24 145 M211.24 113 C213.13 136.33, 201.29 145.73, 179.24 145 M179.24 145 C138.12 143.98, 95.33 143.42, 32 145 M179.24 145 C137.22 147.12, 97.62 145.35, 32 145 M32 145 C11.05 144.23, 0.2 133.64, 0 113 M32 145 C12.91 147.12, 1.27 134.22, 0 113 M0 113 C1.88 84.24, 2.05 55.29, 0 32 M0 113 C-0.16 95.75, 0.49 79.98, 0 32 M0 32 C-0.87 11.14, 11.87 0.48, 32 0 M0 32 C0.02 10.41, 11.66 -0.98, 32 0" stroke="#1e1e1e" stroke-width="1" fill="none"></path></g><g transform="translate(626.4533686714879 187.28479550402267) rotate(0 65.5999984741211 16.799999999999955)"><text x="65.5999984741211" y="27.0375" font-family="Cascadia, Segoe UI Emoji" font-size="28px" fill="#1e1e1e" text-anchor="middle" style="white-space: pre;" direction="ltr" dominant-baseline="alphabetic">Registry</text></g><g stroke-linecap="round" transform="translate(10 124.42239435447027) rotate(0 168.27563388894288 170.06580020691047)"><path d="M32 0 C92.28 1.52, 153.08 3.51, 304.55 0 M32 0 C109.48 -0.55, 187.23 -0.06, 304.55 0 M304.55 0 C326.71 0.2, 336.04 12.65, 336.55 32 M304.55 0 C326.9 0.28, 337.36 10.49, 336.55 32 M336.55 32 C337.12 106.79, 338.32 179.27, 336.55 308.13 M336.55 32 C334.19 141.76, 334.39 250, 336.55 308.13 M336.55 308.13 C338.46 328.5, 326.62 338.62, 304.55 340.13 M336.55 308.13 C338.59 329.37, 327.43 337.96, 304.55 340.13 M304.55 340.13 C224.88 338.54, 143.94 338.6, 32 340.13 M304.55 340.13 C209.23 342.01, 113.53 341.96, 32 340.13 M32 340.13 C10.67 338.91, -0.31 329.72, 0 308.13 M32 340.13 C9.71 340.06, -0.88 329.1, 0 308.13 M0 308.13 C-0.21 248.05, -1.1 189.52, 0 32 M0 308.13 C1.53 223.95, 1.6 141.06, 0 32 M0 32 C0.85 11.17, 11.85 1.51, 32 0 M0 32 C1.14 9.21, 9.88 0.32, 32 0" stroke="#1e1e1e" stroke-width="1" fill="none"></path></g><g transform="translate(31.54114177794213 140.53389121617784) rotate(0 98.4000015258789 16.799999999999955)"><text x="98.4000015258789" y="27.0375" font-family="Cascadia, Segoe UI Emoji" font-size="28px" fill="#1e1e1e" text-anchor="middle" style="white-space: pre;" direction="ltr" dominant-baseline="alphabetic">Local folder</text></g><g stroke-linecap="round" transform="translate(40.43282740544703 226.4618744786169) rotate(0 107.40997907804865 94.87881485227626)"><path d="M32 0 C85.8 2.17, 136.68 -1.15, 182.82 0 M32 0 C64 -0.77, 95.78 -1.61, 182.82 0 M182.82 0 C204.82 -0.99, 216.15 9.59, 214.82 32 M182.82 0 C204.42 0.14, 216.1 9.84, 214.82 32 M214.82 32 C215.55 57.22, 214.96 84.84, 214.82 157.76 M214.82 32 C214.12 60.66, 214.47 88.78, 214.82 157.76 M214.82 157.76 C216.23 180.41, 203.66 191.29, 182.82 189.76 M214.82 157.76 C216.81 178.4, 202.36 188.07, 182.82 189.76 M182.82 189.76 C138.41 190.33, 94.64 189.61, 32 189.76 M182.82 189.76 C148.78 187.72, 115.14 189.49, 32 189.76 M32 189.76 C9.5 190.96, -1.57 180.87, 0 157.76 M32 189.76 C12.41 190.64, -1.36 178.99, 0 157.76 M0 157.76 C-1.64 119.02, -1.84 76.06, 0 32 M0 157.76 C1.27 130.83, 1 102.76, 0 32 M0 32 C0.24 9.89, 9.64 1.93, 32 0 M0 32 C-0.08 12.13, 8.41 -1.95, 32 0" stroke="#1e1e1e" stroke-width="1" fill="none"></path></g><g transform="translate(82.24280800937458 304.5406893308932) rotate(0 65.5999984741211 16.799999999999955)"><text x="65.5999984741211" y="27.0375" font-family="Cascadia, Segoe UI Emoji" font-size="28px" fill="#1e1e1e" text-anchor="middle" style="white-space: pre;" direction="ltr" dominant-baseline="alphabetic">Makefile</text></g><g stroke-linecap="round" transform="translate(1069.7784602367472 47.445242681869104) rotate(0 90.40339905735755 68.02632008276419)"><path d="M32 0 C64.76 -1.49, 97.06 -2.01, 148.81 0 M32 0 C58.9 0.53, 87 0.51, 148.81 0 M148.81 0 C169.24 -1.16, 180.2 11.85, 180.81 32 M148.81 0 C168.03 -1.6, 179.3 11.57, 180.81 32 M180.81 32 C181.59 47.54, 180.16 60.25, 180.81 104.05 M180.81 32 C180.83 50.81, 179.82 70.09, 180.81 104.05 M180.81 104.05 C181.2 126.73, 171.69 135.33, 148.81 136.05 M180.81 104.05 C181.78 127.39, 170.1 134.37, 148.81 136.05 M148.81 136.05 C103.69 137.04, 57.74 136.13, 32 136.05 M148.81 136.05 C109.27 136.51, 69.16 137.33, 32 136.05 M32 136.05 C12.52 137.36, -1.05 123.55, 0 104.05 M32 136.05 C9.8 136.58, -1.61 124.61, 0 104.05 M0 104.05 C-0.29 83.27, -1.55 63.86, 0 32 M0 104.05 C0.83 84.01, 0.92 64.62, 0 32 M0 32 C-1.64 12.46, 12.02 -1.69, 32 0 M0 32 C2.19 10.31, 10.56 1.84, 32 0" stroke="#1e1e1e" stroke-width="1" fill="none"></path></g><g transform="translate(1135.581858912635 98.67156276463334) rotate(0 24.600000381469727 16.799999999999955)"><text x="24.600000381469727" y="27.0375" font-family="Cascadia, Segoe UI Emoji" font-size="28px" fill="#1e1e1e" text-anchor="middle" style="white-space: pre;" direction="ltr" dominant-baseline="alphabetic">API</text></g><g stroke-linecap="round" transform="translate(1070.6735433957308 242.57337134032423) rotate(0 90.40339905735755 68.02632008276419)"><path d="M32 0 C75.87 -0.09, 122.66 1.83, 148.81 0 M32 0 C64.74 0.18, 98.98 -0.11, 148.81 0 M148.81 0 C171.62 1.41, 178.99 12.24, 180.81 32 M148.81 0 C168.87 -1.64, 182.17 12.23, 180.81 32 M180.81 32 C179.16 50.39, 182.06 65.88, 180.81 104.05 M180.81 32 C179.28 48.5, 179.89 63.92, 180.81 104.05 M180.81 104.05 C182.74 127.24, 170.56 137.3, 148.81 136.05 M180.81 104.05 C182.05 126.45, 169.38 137.85, 148.81 136.05 M148.81 136.05 C112.75 135.45, 74.17 138.44, 32 136.05 M148.81 136.05 C111.76 134.61, 75.25 135.32, 32 136.05 M32 136.05 C8.88 134.37, 0.31 125.74, 0 104.05 M32 136.05 C10.62 134.67, 0.25 126.74, 0 104.05 M0 104.05 C-0.11 77.71, -0.35 51.81, 0 32 M0 104.05 C0.36 76.41, -0.09 49.79, 0 32 M0 32 C-0.79 8.81, 12.23 -1.28, 32 0 M0 32 C-0.03 12.4, 11.76 -2.13, 32 0" stroke="#1e1e1e" stroke-width="1" fill="none"></path></g><g transform="translate(1079.0769424530883 276.9996914230885) rotate(0 82 33.60000000000002)"><text x="82" y="27.0375" font-family="Cascadia, Segoe UI Emoji" font-size="28px" fill="#1e1e1e" text-anchor="middle" style="white-space: pre;" direction="ltr" dominant-baseline="alphabetic">Chrome-</text><text x="82" y="60.6375" font-family="Cascadia, Segoe UI Emoji" font-size="28px" fill="#1e1e1e" text-anchor="middle" style="white-space: pre;" direction="ltr" dominant-baseline="alphabetic">controller</text></g><g stroke-linecap="round" transform="translate(1272.962337326056 124.42239435447073) rotate(0 90.40339905735755 68.02632008276419)"><path d="M32 0 C67.97 -2.61, 102.42 -0.52, 148.81 0 M32 0 C69.24 1.29, 106.88 0.98, 148.81 0 M148.81 0 C170.81 0.08, 180.61 10.51, 180.81 32 M148.81 0 C170.18 1.64, 182.11 9.1, 180.81 32 M180.81 32 C178.68 58.33, 178.31 87.8, 180.81 104.05 M180.81 32 C181.27 48.06, 181.58 65.63, 180.81 104.05 M180.81 104.05 C180.55 126.76, 168.72 135.22, 148.81 136.05 M180.81 104.05 C181.59 126.08, 170.65 135.36, 148.81 136.05 M148.81 136.05 C122.14 138.18, 95.86 135.57, 32 136.05 M148.81 136.05 C116.38 136.36, 86.7 137.8, 32 136.05 M32 136.05 C11.25 134.83, -0.62 125.78, 0 104.05 M32 136.05 C10.35 136.28, -1.77 126.5, 0 104.05 M0 104.05 C1.61 81.19, 1.83 62.15, 0 32 M0 104.05 C0 85.86, 0.64 66.64, 0 32 M0 32 C-1.86 9.84, 8.92 1.57, 32 0 M0 32 C-1.99 11.19, 9.87 -1.27, 32 0" stroke="#1e1e1e" stroke-width="1" fill="none"></path></g><g transform="translate(1297.7657379092925 175.64871443723496) rotate(0 65.5999984741211 16.799999999999955)"><text x="65.5999984741211" y="27.0375" font-family="Cascadia, Segoe UI Emoji" font-size="28px" fill="#1e1e1e" text-anchor="middle" style="white-space: pre;" direction="ltr" dominant-baseline="alphabetic">Frontend</text></g><g stroke-linecap="round"><g transform="translate(819.1551757212999 186.40582372003428) rotate(0 111.88539487296748 -30.861284502978833)"><path d="M0.86 -0.64 C38.45 -11.28, 187.53 -52.54, 224.54 -62.78 M-0.14 1.64 C37.44 -8.37, 186.4 -51.36, 224 -61.79" stroke="#1e1e1e" stroke-width="1" fill="none"></path></g><g transform="translate(819.1551757212999 186.40582372003428) rotate(0 111.88539487296748 -30.861284502978833)"><path d="M203.73 -47.16 C206.98 -49.22, 210.73 -55.04, 224 -61.79 M203.73 -47.16 C208.13 -51.73, 215.4 -54.23, 224 -61.79" stroke="#1e1e1e" stroke-width="1" fill="none"></path></g><g transform="translate(819.1551757212999 186.40582372003428) rotate(0 111.88539487296748 -30.861284502978833)"><path d="M199.07 -63.61 C203.48 -62.11, 208.25 -64.32, 224 -61.79 M199.07 -63.61 C204.87 -63.78, 213.39 -61.85, 224 -61.79" stroke="#1e1e1e" stroke-width="1" fill="none"></path></g></g><mask></mask><g stroke-linecap="round"><g transform="translate(815.5748430853648 227.41255990786794) rotate(0 119.04606014483738 41.18586684502668)"><path d="M0.61 0.09 C40.34 13.56, 198.7 67.86, 238.09 81.72 M-0.53 -0.91 C39.07 12.62, 197.18 69.2, 237.13 82.91" stroke="#1e1e1e" stroke-width="1" fill="none"></path></g><g transform="translate(815.5748430853648 227.41255990786794) rotate(0 119.04606014483738 41.18586684502668)"><path d="M212.13 83.19 C219.17 82.98, 224.81 80.97, 237.13 82.91 M212.13 83.19 C221.5 82.27, 230.91 82.16, 237.13 82.91" stroke="#1e1e1e" stroke-width="1" fill="none"></path></g><g transform="translate(815.5748430853648 227.41255990786794) rotate(0 119.04606014483738 41.18586684502668)"><path d="M217.8 67.06 C223.4 71.31, 227.48 73.75, 237.13 82.91 M217.8 67.06 C225.01 72.21, 232.3 78.14, 237.13 82.91" stroke="#1e1e1e" stroke-width="1" fill="none"></path></g></g><mask></mask><g stroke-linecap="round"><g transform="translate(810.2043441314624 197.75454214348701) rotate(0 221.08554026898355 3.6517407953488146)"><path d="M-0.06 -1.15 C73.86 -0.15, 368.98 4.75, 442.78 6.34 M-1.56 0.85 C72.33 1.95, 368.18 6.42, 442.15 7.37" stroke="#1e1e1e" stroke-width="1" fill="none"></path></g><g transform="translate(810.2043441314624 197.75454214348701) rotate(0 221.08554026898355 3.6517407953488146)"><path d="M418.54 15.59 C422.18 14.67, 428.09 12.61, 442.15 7.37 M418.54 15.59 C428.12 11.78, 437.39 9.31, 442.15 7.37" stroke="#1e1e1e" stroke-width="1" fill="none"></path></g><g transform="translate(810.2043441314624 197.75454214348701) rotate(0 221.08554026898355 3.6517407953488146)"><path d="M418.78 -1.51 C422.41 1.62, 428.26 3.6, 442.15 7.37 M418.78 -1.51 C428.23 1.34, 437.41 5.54, 442.15 7.37" stroke="#1e1e1e" stroke-width="1" fill="none"></path></g></g><mask></mask><g stroke-linecap="round" transform="translate(588.2237207034959 358.93418200821) rotate(0 151.26905386825183 51.0197400620732)"><path d="M25.51 0 C119.29 -0.79, 213.49 -1.96, 277.03 0 M25.51 0 C91.87 0.75, 160.37 1.13, 277.03 0 M277.03 0 C295.39 0.92, 304.09 9.43, 302.54 25.51 M277.03 0 C294.56 0.87, 300.44 8.14, 302.54 25.51 M302.54 25.51 C303.69 39.34, 304.36 52, 302.54 76.53 M302.54 25.51 C303.22 44.56, 302.55 62.83, 302.54 76.53 M302.54 76.53 C302.49 95.46, 292.25 100.61, 277.03 102.04 M302.54 76.53 C301.03 91.94, 295.32 103.04, 277.03 102.04 M277.03 102.04 C226.33 102.43, 176.14 104.03, 25.51 102.04 M277.03 102.04 C177.27 103.5, 76.42 103.56, 25.51 102.04 M25.51 102.04 C10.1 100.29, -1.43 94.98, 0 76.53 M25.51 102.04 C10.12 101.12, 1.75 92.17, 0 76.53 M0 76.53 C-0.41 59.7, 1.53 40.54, 0 25.51 M0 76.53 C-0.75 56.75, 0.33 37.36, 0 25.51 M0 25.51 C-1.34 7.81, 10.31 0.07, 25.51 0 M0 25.51 C1.46 6.75, 6.44 1.41, 25.51 0" stroke="#1e1e1e" stroke-width="1" fill="none"></path></g><g transform="translate(690.2927738088083 393.1539220702832) rotate(0 49.20000076293945 16.799999999999955)"><text x="49.20000076293945" y="27.0375" font-family="Cascadia, Segoe UI Emoji" font-size="28px" fill="#1e1e1e" text-anchor="middle" style="white-space: pre;" direction="ltr" dominant-baseline="alphabetic">Kaniko</text></g><g stroke-linecap="round"><g transform="translate(709.9550303252838 353.56368305430897) rotate(0 0.8950831589836525 -32.22299372341456)"><path d="M0.87 0.44 C1.25 -10.32, 1.29 -52.93, 1.5 -63.62 M-0.14 -0.37 C0.13 -11.54, 0.12 -54.44, 0.41 -65.31" stroke="#1e1e1e" stroke-width="1" fill="none"></path></g><g transform="translate(709.9550303252838 353.56368305430897) rotate(0 0.8950831589836525 -32.22299372341456)"><path d="M8.69 -41.73 C7.3 -47.67, 6 -52.12, 0.41 -65.31 M8.69 -41.73 C6.44 -50.83, 2.11 -58.57, 0.41 -65.31" stroke="#1e1e1e" stroke-width="1" fill="none"></path></g><g transform="translate(709.9550303252838 353.56368305430897) rotate(0 0.8950831589836525 -32.22299372341456)"><path d="M-8.41 -41.92 C-5.79 -47.94, -3.09 -52.34, 0.41 -65.31 M-8.41 -41.92 C-4.45 -51.09, -2.59 -58.76, 0.41 -65.31" stroke="#1e1e1e" stroke-width="1" fill="none"></path></g></g><mask></mask><g stroke-linecap="round"><g transform="translate(262.41345075563686 251.5045542396124) rotate(0 158.42971917901048 0.9279880387643971)"><path d="M-0.2 -0.81 C52.71 -0.55, 264.11 0.43, 316.86 0.73 M-1.76 1.37 C51.04 1.82, 263.08 1.6, 315.91 1.68" stroke="#1e1e1e" stroke-width="1" fill="none"></path></g><g transform="translate(262.41345075563686 251.5045542396124) rotate(0 158.42971917901048 0.9279880387643971)"><path d="M292.42 10.23 C297 8.13, 302.35 5.05, 315.91 1.68 M292.42 10.23 C297.59 7.33, 303.07 5.45, 315.91 1.68" stroke="#1e1e1e" stroke-width="1" fill="none"></path></g><g transform="translate(262.41345075563686 251.5045542396124) rotate(0 158.42971917901048 0.9279880387643971)"><path d="M292.42 -6.88 C296.88 -4.69, 302.23 -3.5, 315.91 1.68 M292.42 -6.88 C297.66 -5.9, 303.13 -3.9, 315.91 1.68" stroke="#1e1e1e" stroke-width="1" fill="none"></path></g></g><mask></mask><g stroke-linecap="round"><g transform="translate(267.7839497873167 387.7338252571676) rotate(0 152.1641370272356 -0.058927603033453124)"><path d="M0.05 0.62 C50.87 0.34, 253.34 -0.28, 304.19 -0.6 M-1.39 -0.1 C49.33 0.29, 252.13 0.77, 303.17 0.69" stroke="#1e1e1e" stroke-width="1" fill="none"></path></g><g transform="translate(267.7839497873167 387.7338252571676) rotate(0 152.1641370272356 -0.058927603033453124)"><path d="M279.67 9.22 C286.2 6.96, 289.93 6.59, 303.17 0.69 M279.67 9.22 C283.64 6.55, 290.06 5.08, 303.17 0.69" stroke="#1e1e1e" stroke-width="1" fill="none"></path></g><g transform="translate(267.7839497873167 387.7338252571676) rotate(0 152.1641370272356 -0.058927603033453124)"><path d="M279.68 -7.88 C286.37 -6.09, 290.09 -2.41, 303.17 0.69 M279.68 -7.88 C283.52 -7.08, 289.94 -5.09, 303.17 0.69" stroke="#1e1e1e" stroke-width="1" fill="none"></path></g></g><mask></mask><g transform="translate(282.62675627081285 204.97987866300855) rotate(0 123 16.799999999999955)"><text x="123" y="27.0375" font-family="Cascadia, Segoe UI Emoji" font-size="28px" fill="#1e1e1e" text-anchor="middle" style="white-space: pre;" direction="ltr" dominant-baseline="alphabetic">2.Deploy (helm)</text></g><g transform="translate(264.4365960563605 338.55384937227655) rotate(0 139.39999389648438 16.799999999999955)"><text x="139.39999389648438" y="27.0375" font-family="Cascadia, Segoe UI Emoji" font-size="28px" fill="#1e1e1e" text-anchor="middle" style="white-space: pre;" direction="ltr" dominant-baseline="alphabetic">1.Build (kubectl)</text></g></svg>