<svg version="1.1" xmlns="http://www.w3.org/2000/svg" viewBox="0 0 1175.951639490383 602.970935141951" width="1175.951639490383" height="602.970935141951">
  <!-- svg-source:excalidraw -->
  
  <defs>
    <style class="style-fonts">
      @font-face {
        font-family: "Virgil";
        src: url("https://excalidraw.com/Virgil.woff2");
      }
      @font-face {
        font-family: "Cascadia";
        src: url("https://excalidraw.com/Cascadia.woff2");
      }
      @font-face {
        font-family: "Assistant";
        src: url("https://excalidraw.com/Assistant-Regular.woff2");
      }
    </style>
    
  </defs>
  <rect x="0" y="0" width="1175.951639490383" height="602.970935141951" fill="#ffffff"></rect><g transform="translate(507.3248483114986 305.83052583726) rotate(0 139.39999389648438 16.80000000000001)"><text x="139.39999389648438" y="27.0375" font-family="Cascadia, Segoe UI Emoji" font-size="28px" fill="#1e1e1e" text-anchor="middle" style="white-space: pre;" direction="ltr" dominant-baseline="alphabetic">K8S cluster (AKS)</text></g><g stroke-linecap="round" transform="translate(479.5193772240858 279.1482322105687) rotate(0 343.2161311331487 156.91135146569115)"><path d="M32 0 C182.26 -0.38, 332.02 -1.36, 654.43 0 M32 0 C173.02 -1.42, 314.2 -1.21, 654.43 0 M654.43 0 C677.2 -1.7, 688.42 11.18, 686.43 32 M654.43 0 C673.7 0.16, 686.47 10.45, 686.43 32 M686.43 32 C686.78 83.5, 686.94 134.43, 686.43 281.82 M686.43 32 C683.93 108.12, 683.85 184.65, 686.43 281.82 M686.43 281.82 C688.16 301.7, 676.19 314.89, 654.43 313.82 M686.43 281.82 C685.29 305.19, 675.83 315.17, 654.43 313.82 M654.43 313.82 C521.24 315.39, 388.68 315.3, 32 313.82 M654.43 313.82 C487.19 314.61, 319.72 314.55, 32 313.82 M32 313.82 C8.68 313.39, -0.21 301.67, 0 281.82 M32 313.82 C10.43 312.81, 1.24 304.27, 0 281.82 M0 281.82 C1.7 202.62, 0.92 127.01, 0 32 M0 281.82 C1.16 197.44, 1.63 113.77, 0 32 M0 32 C-1.2 10.38, 10.38 0.33, 32 0 M0 32 C-0.85 10.52, 9.26 0.21, 32 0" stroke="#1e1e1e" stroke-width="1" fill="none"></path></g><g stroke-linecap="round" transform="translate(10 283.8954466490243) rotate(0 153.05922018621936 117.25589382686974)"><path d="M32 0 C111.45 -2.66, 188.48 -3.13, 274.12 0 M32 0 C110.38 0.85, 189.97 0.73, 274.12 0 M274.12 0 C294.59 -1.64, 306.16 10.24, 306.12 32 M274.12 0 C297.05 0.71, 307.6 8.84, 306.12 32 M306.12 32 C304.82 98.96, 306.58 163.17, 306.12 202.51 M306.12 32 C307.02 77.45, 306.5 120.72, 306.12 202.51 M306.12 202.51 C308.1 223.6, 293.62 233.66, 274.12 234.51 M306.12 202.51 C305.33 223.95, 297.43 234.82, 274.12 234.51 M274.12 234.51 C212.31 234.87, 151.05 237.45, 32 234.51 M274.12 234.51 C188.22 236.33, 102.59 235.92, 32 234.51 M32 234.51 C10.27 235.01, -0.49 222.18, 0 202.51 M32 234.51 C11.86 233.3, 2.14 224.53, 0 202.51 M0 202.51 C0.52 147.59, -0.19 87.63, 0 32 M0 202.51 C-1.07 140.08, -1 79.54, 0 32 M0 32 C-1 12.01, 8.71 0.15, 32 0 M0 32 C0.64 8.8, 9.32 0.81, 32 0" stroke="#1e1e1e" stroke-width="1" fill="none"></path></g><g transform="translate(56.45922171209827 384.35134047589406) rotate(0 106.5999984741211 16.80000000000001)"><text x="106.5999984741211" y="27.0375" font-family="Cascadia, Segoe UI Emoji" font-size="28px" fill="#1e1e1e" text-anchor="middle" style="white-space: pre;" direction="ltr" dominant-baseline="alphabetic">GitHub Action</text></g><g stroke-linecap="round" transform="translate(506.77115323597434 376.08901202434936) rotate(0 108.30506223703242 65.341070605813)"><path d="M32 0 C63.8 0.8, 98.07 -1.72, 184.61 0 M32 0 C66.33 -0.79, 100.07 -0.1, 184.61 0 M184.61 0 C204.38 -0.24, 214.93 10.64, 216.61 32 M184.61 0 C205.23 -2.06, 215.37 11.64, 216.61 32 M216.61 32 C216.46 49, 218.77 66.42, 216.61 98.68 M216.61 32 C216.22 50.57, 216.13 69.87, 216.61 98.68 M216.61 98.68 C216.18 119.44, 205.21 131.15, 184.61 130.68 M216.61 98.68 C215.8 118.67, 203.9 130.19, 184.61 130.68 M184.61 130.68 C144.95 131.21, 103.9 129.93, 32 130.68 M184.61 130.68 C129.7 130.48, 75.23 130.74, 32 130.68 M32 130.68 C11.18 132.08, 0.1 121.34, 0 98.68 M32 130.68 C9.52 131.44, -2 121.15, 0 98.68 M0 98.68 C-1.82 74.19, 0.07 53.22, 0 32 M0 98.68 C-0.11 79.53, 1.46 61.11, 0 32 M0 32 C1.09 8.8, 8.82 -0.34, 32 0 M0 32 C0.5 10.02, 9.07 -0.68, 32 0" stroke="#1e1e1e" stroke-width="1" fill="none"></path></g><g transform="translate(565.8762147100673 424.6300826301624) rotate(0 49.20000076293945 16.80000000000001)"><text x="49.20000076293945" y="27.0375" font-family="Cascadia, Segoe UI Emoji" font-size="28px" fill="#1e1e1e" text-anchor="middle" style="white-space: pre;" direction="ltr" dominant-baseline="alphabetic">Kaniko</text></g><g stroke-linecap="round"><g transform="translate(330.43977091617853 446.9288552582299) rotate(0 80.5574843085364 3.1243876409557174)"><path d="M0.96 -0.59 C27.89 0.7, 134.29 5.73, 161.03 6.78 M0 1.71 C26.82 2.72, 133.24 4.1, 160.03 4.94" stroke="#1e1e1e" stroke-width="1" fill="none"></path></g><g transform="translate(330.43977091617853 446.9288552582299) rotate(0 80.5574843085364 3.1243876409557174)"><path d="M136.36 12.99 C141.37 10.64, 149.17 9.23, 160.03 4.94 M136.36 12.99 C142.15 10.19, 148.13 8.77, 160.03 4.94" stroke="#1e1e1e" stroke-width="1" fill="none"></path></g><g transform="translate(330.43977091617853 446.9288552582299) rotate(0 80.5574843085364 3.1243876409557174)"><path d="M136.73 -4.11 C141.5 -2.18, 149.21 0.7, 160.03 4.94 M136.73 -4.11 C142.38 -2.57, 148.27 0.34, 160.03 4.94" stroke="#1e1e1e" stroke-width="1" fill="none"></path></g></g><mask></mask><g transform="translate(333.9054242011938 408.5185857684553) rotate(0 57.400001525878906 16.80000000000001)"><text x="57.400001525878906" y="27.0375" font-family="Cascadia, Segoe UI Emoji" font-size="28px" fill="#1e1e1e" text-anchor="middle" style="white-space: pre;" direction="ltr" dominant-baseline="alphabetic">1.Build</text></g><g stroke-linecap="round" transform="translate(527.3580658926011 10.000000000000227) rotate(0 163.8002180940241 69.8164864007316)"><path d="M32 0 C96.95 0.48, 161.83 0.33, 295.6 0 M32 0 C129.36 0.35, 227.65 0.51, 295.6 0 M295.6 0 C318.84 0.66, 328.33 8.74, 327.6 32 M295.6 0 C318.78 0.6, 329.74 9.45, 327.6 32 M327.6 32 C328.76 51.98, 329.04 71.16, 327.6 107.63 M327.6 32 C326.43 48.6, 327.41 67.72, 327.6 107.63 M327.6 107.63 C329.07 129.76, 318.01 138.43, 295.6 139.63 M327.6 107.63 C327.13 129.58, 315.61 140.74, 295.6 139.63 M295.6 139.63 C209.71 141.35, 125.03 141.51, 32 139.63 M295.6 139.63 C233.6 139.93, 172.24 139.93, 32 139.63 M32 139.63 C10.75 141.36, 1.46 127.54, 0 107.63 M32 139.63 C9.91 139.56, -0.13 131.24, 0 107.63 M0 107.63 C-0.3 91.64, 0.23 73.99, 0 32 M0 107.63 C0.97 89.38, 0.26 71.55, 0 32 M0 32 C-0.9 9.65, 9.88 -0.8, 32 0 M0 32 C-2.16 12.82, 10.83 -0.52, 32 0" stroke="#1e1e1e" stroke-width="1" fill="none"></path></g><g transform="translate(666.5582836051555 63.016486400731765) rotate(0 24.600000381469727 16.799999999999955)"><text x="24.600000381469727" y="27.0375" font-family="Cascadia, Segoe UI Emoji" font-size="28px" fill="#1e1e1e" text-anchor="middle" style="white-space: pre;" direction="ltr" dominant-baseline="alphabetic">ACR</text></g><g stroke-linecap="round"><g transform="translate(613.1605678916738 360.8725983216257) rotate(0 -1.060361993296624 -96.6689811702438)"><path d="M0.59 -0.05 C0.15 -32.28, -2.85 -162.03, -3.3 -194.37 M-0.56 -1.12 C-0.59 -33.15, -0.82 -161.37, -1.21 -193.38" stroke="#1e1e1e" stroke-width="1" fill="none"></path></g><g transform="translate(613.1605678916738 360.8725983216257) rotate(0 -1.060361993296624 -96.6689811702438)"><path d="M7.49 -169.94 C5.49 -177.54, 1.74 -181.28, -1.21 -193.38 M7.49 -169.94 C5.39 -175.39, 4.23 -181.16, -1.21 -193.38" stroke="#1e1e1e" stroke-width="1" fill="none"></path></g><g transform="translate(613.1605678916738 360.8725983216257) rotate(0 -1.060361993296624 -96.6689811702438)"><path d="M-9.62 -169.83 C-7.47 -177.55, -7.08 -181.31, -1.21 -193.38 M-9.62 -169.83 C-7.64 -175.21, -4.72 -181.01, -1.21 -193.38" stroke="#1e1e1e" stroke-width="1" fill="none"></path></g></g><mask></mask><g stroke-linecap="round"><g transform="translate(330.4397709161784 298.1863584753828) rotate(0 96.29424972557456 -67.151464801153)"><path d="M0.28 -0.56 C32.04 -22.93, 159.43 -112.03, 191.67 -134.18 M-1.03 1.77 C31 -20.4, 161.47 -109.73, 193.9 -132.58" stroke="#1e1e1e" stroke-width="1" fill="none"></path></g><g transform="translate(330.4397709161784 298.1863584753828) rotate(0 96.29424972557456 -67.151464801153)"><path d="M179.47 -112.17 C184.22 -121.79, 191.04 -126.43, 193.9 -132.58 M179.47 -112.17 C184.08 -120.17, 189.28 -126.9, 193.9 -132.58" stroke="#1e1e1e" stroke-width="1" fill="none"></path></g><g transform="translate(330.4397709161784 298.1863584753828) rotate(0 96.29424972557456 -67.151464801153)"><path d="M169.72 -126.23 C178.33 -130.32, 189 -129.42, 193.9 -132.58 M169.72 -126.23 C177.93 -128.98, 186.72 -130.52, 193.9 -132.58" stroke="#1e1e1e" stroke-width="1" fill="none"></path></g></g><mask></mask><g transform="translate(283.37759091240764 192.59696443268285) rotate(324.9526726154344 131.19999694824224 16.799999999999955)"><text x="131.1999969482422" y="27.0375" font-family="Cascadia, Segoe UI Emoji" font-size="28px" fill="#1e1e1e" text-anchor="middle" style="white-space: pre;" direction="ltr" dominant-baseline="alphabetic">2a.Deploy (helm)</text></g><g stroke-linecap="round" transform="translate(939.0963190251208 294.636444556829) rotate(0 89.5083158983739 55.4951558569918)"><path d="M27.75 0 C63.72 1.18, 99.12 -1.23, 151.27 0 M27.75 0 C65.95 -0.56, 103.87 -0.7, 151.27 0 M151.27 0 C170.89 1.44, 178.73 7.93, 179.02 27.75 M151.27 0 C168.29 0.01, 178.55 7.25, 179.02 27.75 M179.02 27.75 C180.75 45.17, 178.92 61.81, 179.02 83.24 M179.02 27.75 C179.16 45.49, 178.94 61.68, 179.02 83.24 M179.02 83.24 C180.12 103.35, 171.2 111.28, 151.27 110.99 M179.02 83.24 C179.48 99.89, 169.76 111.85, 151.27 110.99 M151.27 110.99 C100.82 109.11, 53.94 110.39, 27.75 110.99 M151.27 110.99 C117.82 110.64, 84.93 111.34, 27.75 110.99 M27.75 110.99 C7.53 109.34, 0.46 101.34, 0 83.24 M27.75 110.99 C9.55 112.93, -0.02 100.17, 0 83.24 M0 83.24 C0.29 68.33, 1.55 54.85, 0 27.75 M0 83.24 C0.17 71.13, -0.84 58.24, 0 27.75 M0 27.75 C0.39 8.09, 9.76 -1.94, 27.75 0 M0 27.75 C2.21 10.04, 10.49 1.29, 27.75 0" stroke="#1e1e1e" stroke-width="1" fill="none"></path></g><g transform="translate(1004.004634542025 333.33160041382087) rotate(0 24.600000381469727 16.80000000000001)"><text x="24.600000381469727" y="27.0375" font-family="Cascadia, Segoe UI Emoji" font-size="28px" fill="#1e1e1e" text-anchor="middle" style="white-space: pre;" direction="ltr" dominant-baseline="alphabetic">API</text></g><g stroke-linecap="round" transform="translate(873.7552484193078 425.31858576845525) rotate(0 90.40339905735755 68.02632008276419)"><path d="M32 0 C66.22 -1, 100.6 -2.52, 148.81 0 M32 0 C56.87 1.04, 80.01 0.01, 148.81 0 M148.81 0 C170.3 -1.82, 180.34 9.27, 180.81 32 M148.81 0 C171.36 -0.52, 179.2 10.46, 180.81 32 M180.81 32 C178.72 59.5, 182.07 82.65, 180.81 104.05 M180.81 32 C180.45 58.87, 180.64 84.31, 180.81 104.05 M180.81 104.05 C179.24 126.61, 171.5 135.96, 148.81 136.05 M180.81 104.05 C182.86 126.77, 171.11 136.76, 148.81 136.05 M148.81 136.05 C125.5 135.16, 99.97 138.57, 32 136.05 M148.81 136.05 C108.35 135.79, 66.71 136.59, 32 136.05 M32 136.05 C8.69 134.87, 0.63 124.11, 0 104.05 M32 136.05 C12.88 136.23, -0.58 126.68, 0 104.05 M0 104.05 C-1.63 84.08, -0.82 67.94, 0 32 M0 104.05 C-0.78 86.12, -0.46 69.29, 0 32 M0 32 C1.41 10.36, 10.04 -1.51, 32 0 M0 32 C-2.18 11.2, 9.33 2.29, 32 0" stroke="#1e1e1e" stroke-width="1" fill="none"></path></g><g transform="translate(882.1586474766654 459.7449058512194) rotate(0 82 33.60000000000002)"><text x="82" y="27.0375" font-family="Cascadia, Segoe UI Emoji" font-size="28px" fill="#1e1e1e" text-anchor="middle" style="white-space: pre;" direction="ltr" dominant-baseline="alphabetic">Chrome-</text><text x="82" y="60.6375" font-family="Cascadia, Segoe UI Emoji" font-size="28px" fill="#1e1e1e" text-anchor="middle" style="white-space: pre;" direction="ltr" dominant-baseline="alphabetic">controller</text></g><g stroke-linecap="round"><g transform="translate(872.8601652603242 140.682141211626) rotate(0 44.75415794918695 68.92140324174784)"><path d="M-0.43 -0.44 C14.67 22.34, 74.62 114.03, 89.73 136.94 M1.55 -1.72 C16.59 21.17, 74.17 114.74, 88.9 138" stroke="#1e1e1e" stroke-width="1" fill="none"></path></g><g transform="translate(872.8601652603242 140.682141211626) rotate(0 44.75415794918695 68.92140324174784)"><path d="M69.22 122.59 C72.99 126.54, 76.7 130.95, 88.9 138 M69.22 122.59 C73.01 126.29, 78.52 130.65, 88.9 138" stroke="#1e1e1e" stroke-width="1" fill="none"></path></g><g transform="translate(872.8601652603242 140.682141211626) rotate(0 44.75415794918695 68.92140324174784)"><path d="M83.73 113.54 C84.21 119.5, 84.62 125.97, 88.9 138 M83.73 113.54 C84.26 119.29, 86.44 125.72, 88.9 138" stroke="#1e1e1e" stroke-width="1" fill="none"></path></g></g><mask></mask><g stroke-linecap="round"><g transform="translate(826.3158409931697 172.90513493504045) rotate(0 40.27874215426823 118.15097698585362)"><path d="M1.02 -0.88 C14.16 38.62, 66.45 197.78, 79.55 237.41 M0.1 1.28 C13.54 40.43, 68.08 196.93, 81.74 235.87" stroke="#1e1e1e" stroke-width="1" fill="none"></path></g><g transform="translate(826.3158409931697 172.90513493504045) rotate(0 40.27874215426823 118.15097698585362)"><path d="M65.92 216.52 C70.21 221.66, 79.2 228.74, 81.74 235.87 M65.92 216.52 C71.38 223.04, 77 229.44, 81.74 235.87" stroke="#1e1e1e" stroke-width="1" fill="none"></path></g><g transform="translate(826.3158409931697 172.90513493504045) rotate(0 40.27874215426823 118.15097698585362)"><path d="M82.06 210.88 C80.58 218.18, 83.77 227.28, 81.74 235.87 M82.06 210.88 C81.8 219.51, 81.73 227.9, 81.74 235.87" stroke="#1e1e1e" stroke-width="1" fill="none"></path></g></g><mask></mask><g stroke-linecap="round"><g transform="translate(257.5229310620333 269.5741161052845) rotate(0 -0.23906583867653808 -51.91482322105685)"><path d="M-0.48 1.1 C-0.63 -16.31, -1.52 -85.95, -1.57 -103.57 M1.46 0.63 C1.73 -17.24, 1.09 -88.17, 0.57 -105.55" stroke="#1e1e1e" stroke-width="1" fill="none"></path></g><g transform="translate(257.5229310620333 269.5741161052845) rotate(0 -0.23906583867653808 -51.91482322105685)"><path d="M9.53 -82.21 C9.01 -89.73, 5.44 -94.07, 0.57 -105.55 M9.53 -82.21 C7.99 -87.67, 4.67 -93.24, 0.57 -105.55" stroke="#1e1e1e" stroke-width="1" fill="none"></path></g><g transform="translate(257.5229310620333 269.5741161052845) rotate(0 -0.23906583867653808 -51.91482322105685)"><path d="M-7.57 -81.91 C-3.94 -89.44, -3.36 -93.84, 0.57 -105.55 M-7.57 -81.91 C-5.03 -87.39, -4.27 -93.03, 0.57 -105.55" stroke="#1e1e1e" stroke-width="1" fill="none"></path></g></g><mask></mask><g stroke-linecap="round" transform="translate(47.59349267731693 10) rotate(0 182.59696443268268 68.02632008276419)"><path d="M32 0 C112.64 1.91, 193.13 1.27, 333.19 0 M32 0 C97.64 0.05, 164.17 -0.33, 333.19 0 M333.19 0 C354.8 -0.18, 366.91 12.48, 365.19 32 M333.19 0 C354.99 0.62, 366.09 10.69, 365.19 32 M365.19 32 C365.6 52.28, 364.98 69.44, 365.19 104.05 M365.19 32 C365.21 51.82, 365.36 71.38, 365.19 104.05 M365.19 104.05 C366.15 126.45, 354.96 135.74, 333.19 136.05 M365.19 104.05 C366.4 127.05, 352.54 135.91, 333.19 136.05 M333.19 136.05 C260.61 137.93, 188.26 137.97, 32 136.05 M333.19 136.05 C253.71 138.52, 173.22 138.18, 32 136.05 M32 136.05 C9.17 134.77, 0.01 124.85, 0 104.05 M32 136.05 C9.29 136.42, 1.36 127.17, 0 104.05 M0 104.05 C0.01 88.21, 0.49 73.43, 0 32 M0 104.05 C0.39 83.74, -1.22 62.16, 0 32 M0 32 C-0.07 10.07, 12.62 -0.48, 32 0 M0 32 C1.84 8.83, 12.77 -2.1, 32 0" stroke="#1e1e1e" stroke-width="1" fill="none"></path></g><g transform="translate(131.79045558412065 61.22632008276423) rotate(0 98.4000015258789 16.799999999999955)"><text x="98.4000015258789" y="27.0375" font-family="Cascadia, Segoe UI Emoji" font-size="28px" fill="#1e1e1e" text-anchor="middle" style="white-space: pre;" direction="ltr" dominant-baseline="alphabetic">Spa frontend</text></g><g transform="translate(54.17715243554096 13.580332635935065) rotate(0 32.79999923706055 16.799999999999955)"><text x="32.79999923706055" y="27.0375" font-family="Cascadia, Segoe UI Emoji" font-size="28px" fill="#1e1e1e" text-anchor="middle" style="white-space: pre;" direction="ltr" dominant-baseline="alphabetic">IPFS</text></g></svg>