<svg version="1.1" xmlns="http://www.w3.org/2000/svg" viewBox="0 0 1421.6666666666667 871.2499999999977" width="1421.6666666666667" height="871.2499999999977">
  <!-- svg-source:excalidraw -->
  
  <defs>
    <style class="style-fonts">
      @font-face {
        font-family: "Virgil";
        src: url("https://excalidraw.com/Virgil.woff2");
      }
      @font-face {
        font-family: "Cascadia";
        src: url("https://excalidraw.com/Cascadia.woff2");
      }
      @font-face {
        font-family: "Assistant";
        src: url("https://excalidraw.com/Assistant-Regular.woff2");
      }
    </style>
    
  </defs>
  <g stroke-linecap="round" transform="translate(489.73809523809655 10) rotate(0 456.66666666666674 233.33333333333326)"><path d="M32 0 C309.27 -0.63, 587.12 -0.57, 881.33 0 M32 0 C311.07 -0.26, 590.7 -0.35, 881.33 0 M881.33 0 C903.94 -1.95, 914.65 10.44, 913.33 32 M881.33 0 C903.95 -0.16, 913.6 12.3, 913.33 32 M913.33 32 C913.77 191.13, 914.33 351.47, 913.33 434.67 M913.33 32 C914.19 177.51, 914.19 321.92, 913.33 434.67 M913.33 434.67 C912.98 454.26, 900.71 468.56, 881.33 466.67 M913.33 434.67 C912.95 456.98, 902.94 464.71, 881.33 466.67 M881.33 466.67 C700.11 463.52, 519.77 463.91, 32 466.67 M881.33 466.67 C672.74 467.17, 463.06 467.49, 32 466.67 M32 466.67 C9.77 464.71, -0.12 457.32, 0 434.67 M32 466.67 C10.08 464.55, 1.73 454.95, 0 434.67 M0 434.67 C-2.07 287.22, -2.28 138.39, 0 32 M0 434.67 C0.61 293.28, 0.28 152.39, 0 32 M0 32 C-0.16 11.67, 11.99 -0.15, 32 0 M0 32 C-0.06 8.58, 11.6 -0.88, 32 0" stroke="#1e1e1e" stroke-width="1" fill="none"></path></g><g stroke-linecap="round" transform="translate(536.4047619047622 109.16666666666697) rotate(0 170.6249999999999 127.91666666666674)"><path d="M32 0 C99.63 1.23, 169.71 -0.82, 309.25 0 M32 0 C127.13 0.8, 223.87 0.86, 309.25 0 M309.25 0 C329.9 -1.2, 342.7 11.4, 341.25 32 M309.25 0 C329.1 -1.02, 341.36 9.12, 341.25 32 M341.25 32 C342.1 97.23, 341.43 160.78, 341.25 223.83 M341.25 32 C341.94 101.29, 342.19 168.89, 341.25 223.83 M341.25 223.83 C343.14 244.03, 330.65 254.7, 309.25 255.83 M341.25 223.83 C341.91 243.92, 332.16 255.76, 309.25 255.83 M309.25 255.83 C232.5 255.69, 153.75 255.46, 32 255.83 M309.25 255.83 C233.53 254.79, 156.49 254.85, 32 255.83 M32 255.83 C9.75 255.21, 0.99 245.5, 0 223.83 M32 255.83 C10.09 253.8, -0.89 244.69, 0 223.83 M0 223.83 C1.08 174.44, 2.76 125.99, 0 32 M0 223.83 C-0.52 182.73, 0.67 142.04, 0 32 M0 32 C-1.11 12.42, 11.48 -0.63, 32 0 M0 32 C1.45 11.38, 9.71 1.01, 32 0" stroke="#1e1e1e" stroke-width="1" fill="none"></path></g><g transform="translate(562.5547634306408 132.91666666666697) rotate(0 65.5999984741211 16.799999999999955)"><text x="65.5999984741211" y="27.0375" font-family="Cascadia, Segoe UI Emoji" font-size="28px" fill="#1e1e1e" text-anchor="middle" style="white-space: pre;" direction="ltr" dominant-baseline="alphabetic">EC2 Host</text></g><g stroke-linecap="round" transform="translate(1001.2797619047622 45.41666666666697) rotate(0 158.12499999999955 201.66666666666652)"><path d="M32 0 C116.16 -0.51, 201.41 2.16, 284.25 0 M32 0 C106.66 1.06, 182.04 1.33, 284.25 0 M284.25 0 C306.25 -1.43, 317.64 10.46, 316.25 32 M284.25 0 C303.47 -1.17, 314.78 11.14, 316.25 32 M316.25 32 C314.69 156.01, 316.12 279.96, 316.25 371.33 M316.25 32 C316.27 160.4, 316.77 289.46, 316.25 371.33 M316.25 371.33 C314.26 392.4, 306.98 403.64, 284.25 403.33 M316.25 371.33 C314.85 391.65, 304.42 401.67, 284.25 403.33 M284.25 403.33 C226.69 401.45, 171.89 402.57, 32 403.33 M284.25 403.33 C232.83 405.6, 182.43 404.45, 32 403.33 M32 403.33 C9.16 402.03, 1.32 392.89, 0 371.33 M32 403.33 C11.28 401.26, -0.29 390.9, 0 371.33 M0 371.33 C-1.14 247.74, -0.26 125.32, 0 32 M0 371.33 C2.36 259.68, 2.52 148.81, 0 32 M0 32 C1.65 11.95, 11.09 1.07, 32 0 M0 32 C-1.17 12.9, 9.99 0.55, 32 0" stroke="#1e1e1e" stroke-width="1" fill="none"></path></g><g transform="translate(1018.9297634306411 76.25) rotate(0 106.5999984741211 16.799999999999955)"><text x="106.5999984741211" y="27.0375" font-family="Cascadia, Segoe UI Emoji" font-size="28px" fill="#1e1e1e" text-anchor="middle" style="white-space: pre;" direction="ltr" dominant-baseline="alphabetic">Nitro enclave</text></g><g stroke-linecap="round" transform="translate(781.0714285714289 205.00000000000023) rotate(0 156.2500000000001 24.791666666666742)"><path d="M12.4 0 C119.57 1.7, 229.68 1.72, 300.1 0 M12.4 0 C120.81 -0.89, 229.9 -1.03, 300.1 0 M300.1 0 C307.09 -0.19, 313.2 2.98, 312.5 12.4 M300.1 0 C306.2 -1.7, 314.7 2.12, 312.5 12.4 M312.5 12.4 C313.32 17.18, 313.76 25.27, 312.5 37.19 M312.5 12.4 C312.89 17.98, 311.78 22.99, 312.5 37.19 M312.5 37.19 C310.82 46.59, 307.41 50.22, 300.1 49.58 M312.5 37.19 C313.9 44.4, 306.79 49.92, 300.1 49.58 M300.1 49.58 C187.18 50.71, 71.58 49.84, 12.4 49.58 M300.1 49.58 C201.84 47.83, 104.94 48.02, 12.4 49.58 M12.4 49.58 C2.66 50.29, -0.21 46.06, 0 37.19 M12.4 49.58 C4.38 50.14, -2.16 47.58, 0 37.19 M0 37.19 C1.39 29.65, -1.15 23.41, 0 12.4 M0 37.19 C0.01 27.11, -0.74 18.37, 0 12.4 M0 12.4 C0.86 3.58, 4.07 -0.32, 12.4 0 M0 12.4 C0.17 4.21, 4.17 -1.02, 12.4 0" stroke="#1e1e1e" stroke-width="1" fill="none"></path></g><g transform="translate(896.3214285714291 212.99166666666702) rotate(0 41 16.799999999999955)"><text x="41" y="27.0375" font-family="Cascadia, Segoe UI Emoji" font-size="28px" fill="#1e1e1e" text-anchor="middle" style="white-space: pre;" direction="ltr" dominant-baseline="alphabetic">vsock</text></g><g transform="translate(545.6380948566261 48.75) rotate(0 24.600000381469727 16.799999999999955)"><text x="24.600000381469727" y="27.0375" font-family="Cascadia, Segoe UI Emoji" font-size="28px" fill="#1e1e1e" text-anchor="middle" style="white-space: pre;" direction="ltr" dominant-baseline="alphabetic">AWS</text></g><g stroke-linecap="round" transform="translate(1081.9047619047622 140) rotate(0 95 66.25)"><path d="M32 0 C76.25 0.65, 118.23 1.87, 158 0 M32 0 C68.94 0.55, 104.78 -0.17, 158 0 M158 0 C179.16 1.19, 191.67 9.01, 190 32 M158 0 C180.49 1.81, 187.78 12.12, 190 32 M190 32 C192.25 59.27, 191.66 83.43, 190 100.5 M190 32 C191.62 48.5, 190.25 62.91, 190 100.5 M190 100.5 C190.23 119.86, 177.89 133.24, 158 132.5 M190 100.5 C190.42 120.52, 179.88 131.9, 158 132.5 M158 132.5 C118.15 130.62, 83.49 132.66, 32 132.5 M158 132.5 C128.28 131.88, 100.88 132.85, 32 132.5 M32 132.5 C9.14 130.66, 0.01 121.66, 0 100.5 M32 132.5 C10.47 130.83, -1.63 121.66, 0 100.5 M0 100.5 C-0.52 81.32, -1.2 66.07, 0 32 M0 100.5 C-0.39 82.01, 0.27 63.05, 0 32 M0 32 C1.81 11.82, 8.68 1.53, 32 0 M0 32 C-1.77 12.4, 9.55 0.79, 32 0" stroke="#1e1e1e" stroke-width="1" fill="none"></path></g><g transform="translate(1103.1047588530043 189.45000000000005) rotate(0 73.80000305175781 16.799999999999955)"><text x="73.80000305175781" y="27.0375" font-family="Cascadia, Segoe UI Emoji" font-size="28px" fill="#1e1e1e" text-anchor="middle" style="white-space: pre;" direction="ltr" dominant-baseline="alphabetic">Nitriding</text></g><g stroke-linecap="round" transform="translate(1084.4047619047622 272.4999999999998) rotate(0 95 66.25)"><path d="M32 0 C59.3 1.59, 84.15 -0.89, 158 0 M32 0 C59.28 -1.68, 86.33 -1.71, 158 0 M158 0 C177.74 0.97, 188.36 10.78, 190 32 M158 0 C180.29 -1.95, 192.05 12.92, 190 32 M190 32 C190.47 56.44, 189.05 77.82, 190 100.5 M190 32 C191.16 52.88, 190.95 73.69, 190 100.5 M190 100.5 C188.79 120.7, 177.85 134.44, 158 132.5 M190 100.5 C192.04 121.12, 178.61 134.78, 158 132.5 M158 132.5 C127.8 131.07, 96.97 132.48, 32 132.5 M158 132.5 C120.14 133.09, 81.6 132.45, 32 132.5 M32 132.5 C10.79 132.67, -1.59 119.95, 0 100.5 M32 132.5 C11.77 133.03, -1.06 121.47, 0 100.5 M0 100.5 C1.39 79.69, 0.93 58.59, 0 32 M0 100.5 C1.27 76.01, -0.05 51.46, 0 32 M0 32 C-1.07 9.47, 8.73 -1.44, 32 0 M0 32 C-1.81 10.51, 10.16 0.29, 32 0" stroke="#1e1e1e" stroke-width="1" fill="none"></path></g><g transform="translate(1105.6047588530043 305.14999999999986) rotate(0 73.80000305175781 33.60000000000002)"><text x="73.80000305175781" y="27.0375" font-family="Cascadia, Segoe UI Emoji" font-size="28px" fill="#1e1e1e" text-anchor="middle" style="white-space: pre;" direction="ltr" dominant-baseline="alphabetic">EnclaveID</text><text x="73.80000305175781" y="60.6375" font-family="Cascadia, Segoe UI Emoji" font-size="28px" fill="#1e1e1e" text-anchor="middle" style="white-space: pre;" direction="ltr" dominant-baseline="alphabetic">API</text></g><g stroke-linecap="round" transform="translate(592.7380952380954 181.25000000000045) rotate(0 101.875 73.75)"><path d="M32 0 C66.54 0.67, 100.53 -0.01, 171.75 0 M32 0 C65.86 0.12, 97.98 -1.33, 171.75 0 M171.75 0 C193.55 1.74, 203.34 11.32, 203.75 32 M171.75 0 C191.86 1.26, 201.65 12.55, 203.75 32 M203.75 32 C203.03 53.85, 204.07 81.38, 203.75 115.5 M203.75 32 C203.27 48.63, 203.66 66.66, 203.75 115.5 M203.75 115.5 C205.69 135.62, 194.77 149.46, 171.75 147.5 M203.75 115.5 C202.09 136.42, 191.02 145.97, 171.75 147.5 M171.75 147.5 C122 147.07, 74.74 147.52, 32 147.5 M171.75 147.5 C127.14 147.38, 83.01 148.55, 32 147.5 M32 147.5 C11.82 148.39, -0.84 136.52, 0 115.5 M32 147.5 C10.39 146.89, -0.08 135.75, 0 115.5 M0 115.5 C-1.5 83.08, 0.4 54.69, 0 32 M0 115.5 C0.02 81.35, 0.98 48.32, 0 32 M0 32 C0.75 11.17, 9.92 -0.29, 32 0 M0 32 C-1.31 8.89, 9.7 1.39, 32 0" stroke="#1e1e1e" stroke-width="1" fill="none"></path></g><g transform="translate(637.2130937122165 238.2000000000005) rotate(0 57.400001525878906 16.799999999999955)"><text x="57.400001525878906" y="27.0375" font-family="Cascadia, Segoe UI Emoji" font-size="28px" fill="#1e1e1e" text-anchor="middle" style="white-space: pre;" direction="ltr" dominant-baseline="alphabetic">gvproxy</text></g><g stroke-linecap="round"><g transform="translate(344.9999999999998 272.10685043441663) rotate(0 111.6666666666664 0.34929077664196484)"><path d="M0.6 0.25 C37.76 0.32, 186.41 0.39, 223.37 0.29 M-0.55 -0.67 C36.43 -0.41, 184.89 1.44, 222.44 1.62" stroke="#1e1e1e" stroke-width="1" fill="none"></path></g><g transform="translate(344.9999999999998 272.10685043441663) rotate(0 111.6666666666664 0.34929077664196484)"><path d="M198.88 9.96 C207.11 7.14, 213.84 2.74, 222.44 1.62 M198.88 9.96 C204.8 7.73, 207.98 6.31, 222.44 1.62" stroke="#1e1e1e" stroke-width="1" fill="none"></path></g><g transform="translate(344.9999999999998 272.10685043441663) rotate(0 111.6666666666664 0.34929077664196484)"><path d="M199.03 -7.14 C207.19 -4.29, 213.87 -3.03, 222.44 1.62 M199.03 -7.14 C205.06 -5.71, 208.21 -3.48, 222.44 1.62" stroke="#1e1e1e" stroke-width="1" fill="none"></path></g></g><mask></mask><g stroke-linecap="round" transform="translate(358.33333333333303 546.2499999999993) rotate(0 234.16666666666652 142.4999999999999)"><path d="M32 0 C181.14 1.96, 329.94 1.19, 436.33 0 M32 0 C136.88 -1.87, 242.31 -1.73, 436.33 0 M436.33 0 C458.16 -1.95, 468.14 9.52, 468.33 32 M436.33 0 C459.51 -0.12, 467.97 11.13, 468.33 32 M468.33 32 C467.36 101.33, 469.53 171.43, 468.33 253 M468.33 32 C468.43 85.13, 468.53 139.67, 468.33 253 M468.33 253 C468.94 275.11, 458.48 286.61, 436.33 285 M468.33 253 C466.2 275.79, 459.37 283.95, 436.33 285 M436.33 285 C289.56 284.53, 140.75 283.33, 32 285 M436.33 285 C310.89 287.32, 186.01 287.47, 32 285 M32 285 C10.86 286.96, -0.37 274.18, 0 253 M32 285 C12.13 283.96, -1.4 274.9, 0 253 M0 253 C-0.12 201.87, -0.47 154.54, 0 32 M0 253 C0.31 206.12, 1.88 158.63, 0 32 M0 32 C1.97 9.88, 11.37 0.92, 32 0 M0 32 C1.99 9.43, 9.72 -1.42, 32 0" stroke="#1e1e1e" stroke-width="1" fill="none"></path></g><g transform="translate(382.4666659037273 566.2499999999995) rotate(0 49.20000076293945 16.799999999999955)"><text x="49.20000076293945" y="27.0375" font-family="Cascadia, Segoe UI Emoji" font-size="28px" fill="#1e1e1e" text-anchor="middle" style="white-space: pre;" direction="ltr" dominant-baseline="alphabetic">GitHub</text></g><g stroke-linecap="round" transform="translate(370 614.5833333333326) rotate(0 105.83333333333337 49.16666666666674)"><path d="M24.58 0 C78.66 0.09, 131.49 0.3, 187.08 0 M24.58 0 C69.53 1.52, 115.57 2.01, 187.08 0 M187.08 0 C201.53 -0.74, 212.25 8.48, 211.67 24.58 M187.08 0 C202.27 -1.77, 211.46 10.06, 211.67 24.58 M211.67 24.58 C211.26 38.21, 211.03 47.38, 211.67 73.75 M211.67 24.58 C212.56 38.43, 211.46 50.29, 211.67 73.75 M211.67 73.75 C211.06 89.75, 205.21 98.78, 187.08 98.33 M211.67 73.75 C212.74 92.22, 202.23 96.55, 187.08 98.33 M187.08 98.33 C125.89 97.78, 61.92 97.08, 24.58 98.33 M187.08 98.33 C122.69 97.04, 60.13 96.93, 24.58 98.33 M24.58 98.33 C9.86 97.72, 0.55 88.55, 0 73.75 M24.58 98.33 C7.95 96.29, 0.34 89.94, 0 73.75 M0 73.75 C-0.42 60.3, -1.85 41.77, 0 24.58 M0 73.75 C-0.74 55.51, 0.34 38.28, 0 24.58 M0 24.58 C-0.86 8.76, 7.87 -1.79, 24.58 0 M0 24.58 C1.34 8.46, 9.52 -0.92, 24.58 0" stroke="#1e1e1e" stroke-width="1" fill="none"></path></g><g transform="translate(393.8333333333335 630.1499999999994) rotate(0 82 33.60000000000002)"><text x="82" y="27.0375" font-family="Cascadia, Segoe UI Emoji" font-size="28px" fill="#1e1e1e" text-anchor="middle" style="white-space: pre;" direction="ltr" dominant-baseline="alphabetic">EnclaveID </text><text x="82" y="60.6375" font-family="Cascadia, Segoe UI Emoji" font-size="28px" fill="#1e1e1e" text-anchor="middle" style="white-space: pre;" direction="ltr" dominant-baseline="alphabetic">OSS</text></g><g stroke-linecap="round"><g transform="translate(376.6666666666665 532.9166666666663) rotate(0 -27.5 -80.83333333333383)"><path d="M0.92 0.62 C-8.41 -26.17, -45.66 -134.74, -54.99 -161.75" stroke="#1e1e1e" stroke-width="1.5" fill="none" stroke-dasharray="8 9"></path></g></g><mask></mask><g stroke-linecap="round"><g transform="translate(986.6666666666667 439.5833333333326) rotate(0 -73.33333333333337 62.5)"><path d="M1.13 -0.61 C-23.3 20.3, -122.64 103.67, -147.41 124.67" stroke="#1e1e1e" stroke-width="1.5" fill="none" stroke-dasharray="8 9"></path></g></g><mask></mask><g stroke-linecap="round" transform="translate(10 11.24999999999909) rotate(0 180.83333333333326 220.0000000000001)"><path d="M32 0 C92.88 -0.17, 157.34 0.24, 329.67 0 M32 0 C108.17 0.4, 183.21 0.45, 329.67 0 M329.67 0 C352.28 -0.91, 362.22 12.23, 361.67 32 M329.67 0 C350.89 0.93, 361.64 9.58, 361.67 32 M361.67 32 C363.31 162.34, 364.41 292.83, 361.67 408 M361.67 32 C362.52 182.1, 361.86 331.51, 361.67 408 M361.67 408 C362.95 429.65, 352.1 439.66, 329.67 440 M361.67 408 C363.83 428.93, 349.31 438.28, 329.67 440 M329.67 440 C220.75 442.95, 110.27 440.76, 32 440 M329.67 440 C233 441.62, 137.32 440.52, 32 440 M32 440 C9.66 438.64, -1.36 429.52, 0 408 M32 440 C10.08 441.14, -0.02 428.17, 0 408 M0 408 C1.01 296.87, 0.97 185.11, 0 32 M0 408 C-1.55 325.53, -1.83 243.61, 0 32 M0 32 C-1.4 11.52, 10.92 1.1, 32 0 M0 32 C-1.04 11.27, 11.19 -1.72, 32 0" stroke="#1e1e1e" stroke-width="1" fill="none"></path></g><g transform="translate(52.20000076293945 52.91666666666515) rotate(0 32.79999923706055 16.799999999999955)"><text x="32.79999923706055" y="27.0375" font-family="Cascadia, Segoe UI Emoji" font-size="28px" fill="#1e1e1e" text-anchor="middle" style="white-space: pre;" direction="ltr" dominant-baseline="alphabetic">IPFS</text></g><g stroke-linecap="round" transform="translate(973.3333333333337 527.9166666666645) rotate(0 219.16666666666652 166.66666666666663)"><path d="M32 0 C148.67 -1.16, 266.73 0.12, 406.33 0 M32 0 C129.55 -0.86, 226.96 -0.41, 406.33 0 M406.33 0 C427.46 1.84, 437.38 10.28, 438.33 32 M406.33 0 C428.23 1.53, 438.22 9.72, 438.33 32 M438.33 32 C439.06 96.28, 436.27 157.65, 438.33 301.33 M438.33 32 C439.29 109.65, 438.82 187.48, 438.33 301.33 M438.33 301.33 C437.17 322.49, 429.17 333.49, 406.33 333.33 M438.33 301.33 C438.9 324.78, 426.56 331.95, 406.33 333.33 M406.33 333.33 C312.53 330.4, 215.74 331.09, 32 333.33 M406.33 333.33 C327.45 330.87, 248 331.4, 32 333.33 M32 333.33 C9.51 332.86, -1.73 322.56, 0 301.33 M32 333.33 C9.17 334.29, 0.61 321.93, 0 301.33 M0 301.33 C-0.08 193.08, 0.82 88.41, 0 32 M0 301.33 C1.03 232.05, 1.5 162.33, 0 32 M0 32 C-1.63 9.23, 9.64 -1.22, 32 0 M0 32 C0.49 11.93, 10.6 1.01, 32 0" stroke="#1e1e1e" stroke-width="1" fill="none"></path></g><g transform="translate(1005.6666666666667 551.2499999999975) rotate(0 41 16.799999999999955)"><text x="41" y="27.0375" font-family="Cascadia, Segoe UI Emoji" font-size="28px" fill="#1e1e1e" text-anchor="middle" style="white-space: pre;" direction="ltr" dominant-baseline="alphabetic">Azure</text></g><g stroke-linecap="round" transform="translate(1061.6666666666677 612.9166666666642) rotate(0 135.83333333333303 100.83333333333337)"><path d="M32 0 C84.22 -0.12, 137.99 -1.87, 239.67 0 M32 0 C113.36 0.39, 194.39 0.34, 239.67 0 M239.67 0 C259.41 -0.55, 271.16 10.64, 271.67 32 M239.67 0 C259.51 -1.65, 269.43 11.44, 271.67 32 M271.67 32 C269.46 84.61, 270.07 139.95, 271.67 169.67 M271.67 32 C272.44 59.11, 272.31 86.94, 271.67 169.67 M271.67 169.67 C271.99 192.53, 260.77 201.97, 239.67 201.67 M271.67 169.67 C272.8 188.96, 262.84 203.12, 239.67 201.67 M239.67 201.67 C172.05 203.37, 103.38 203.44, 32 201.67 M239.67 201.67 C179.06 200.23, 118.37 201.5, 32 201.67 M32 201.67 C11.51 201.12, 0.75 189.92, 0 169.67 M32 201.67 C11.43 203.24, 1.81 191.75, 0 169.67 M0 169.67 C1.32 136.93, 0.55 103.17, 0 32 M0 169.67 C1.28 137, 2.14 105.14, 0 32 M0 32 C0.18 9.72, 11.08 0.33, 32 0 M0 32 C0.12 12.54, 12.13 -2.3, 32 0" stroke="#1e1e1e" stroke-width="1" fill="none"></path></g><g transform="translate(1107.3000030517585 696.9499999999975) rotate(0 90.19999694824219 16.799999999999955)"><text x="90.19999694824219" y="27.0375" font-family="Cascadia, Segoe UI Emoji" font-size="28px" fill="#1e1e1e" text-anchor="middle" style="white-space: pre;" direction="ltr" dominant-baseline="alphabetic">GPU cluster</text></g><g stroke-linecap="round"><g transform="translate(1174.5030180736965 411.2499999999977) rotate(0 1.6552409359030662 95)"><path d="M-1.15 0.2 C-0.57 31.92, 2.44 158.84, 3.17 190.35 M0.45 -0.74 C0.88 30.6, 1.81 156.59, 2.15 188.4" stroke="#1e1e1e" stroke-width="1" fill="none"></path></g><g transform="translate(1174.5030180736965 411.2499999999977) rotate(0 1.6552409359030662 95)"><path d="M-6.61 164.99 C-3.84 171.37, -1.15 178.06, 2.15 188.4 M-6.61 164.99 C-4.21 169.73, -2.82 175.05, 2.15 188.4" stroke="#1e1e1e" stroke-width="1" fill="none"></path></g><g transform="translate(1174.5030180736965 411.2499999999977) rotate(0 1.6552409359030662 95)"><path d="M10.49 164.84 C8.5 171.09, 6.43 177.83, 2.15 188.4 M10.49 164.84 C8.89 169.72, 6.26 175.07, 2.15 188.4" stroke="#1e1e1e" stroke-width="1" fill="none"></path></g></g><mask></mask><g stroke-linecap="round"><g transform="translate(1192.7964028187528 592.9166666666645) rotate(0 -1.5425759939496402 -90.00000000000011)"><path d="M-1.07 0.08 C-1.55 -29.97, -2.45 -149.9, -2.64 -179.94 M0.57 -0.93 C-0.05 -30.79, -2.84 -148.7, -3.35 -178.38" stroke="#1e1e1e" stroke-width="1" fill="none"></path></g><g transform="translate(1192.7964028187528 592.9166666666645) rotate(0 -1.5425759939496402 -90.00000000000011)"><path d="M5.69 -155.07 C2.87 -161.85, -0.06 -168.54, -3.35 -178.38 M5.69 -155.07 C3.51 -162.24, 1.01 -168.88, -3.35 -178.38" stroke="#1e1e1e" stroke-width="1" fill="none"></path></g><g transform="translate(1192.7964028187528 592.9166666666645) rotate(0 -1.5425759939496402 -90.00000000000011)"><path d="M-11.41 -154.71 C-8.76 -161.46, -6.22 -168.26, -3.35 -178.38 M-11.41 -154.71 C-8.75 -162.01, -6.41 -168.75, -3.35 -178.38" stroke="#1e1e1e" stroke-width="1" fill="none"></path></g></g><mask></mask><g stroke-linecap="round"><g transform="translate(574.9999999999998 246.24999999999795) rotate(0 -116.66666666666663 -0.8333333333333712)"><path d="M0.43 0.77 C-38.77 0.45, -195.56 -1.21, -234.42 -1.51 M-0.8 0.13 C-39.71 0, -193.56 0.63, -232.27 0.11" stroke="#1e1e1e" stroke-width="1" fill="none"></path></g><g transform="translate(574.9999999999998 246.24999999999795) rotate(0 -116.66666666666663 -0.8333333333333712)"><path d="M-208.75 -8.36 C-216.01 -6.99, -225.62 -1, -232.27 0.11 M-208.75 -8.36 C-218.01 -5.58, -225.44 -2.31, -232.27 0.11" stroke="#1e1e1e" stroke-width="1" fill="none"></path></g><g transform="translate(574.9999999999998 246.24999999999795) rotate(0 -116.66666666666663 -0.8333333333333712)"><path d="M-208.81 8.75 C-216.11 3.88, -225.69 3.63, -232.27 0.11 M-208.81 8.75 C-218.11 5.43, -225.52 2.6, -232.27 0.11" stroke="#1e1e1e" stroke-width="1" fill="none"></path></g></g><mask></mask><g stroke-linecap="round" transform="translate(601.6666666666665 619.5833333333312) rotate(0 101.66666666666663 45.83333333333337)"><path d="M22.92 0 C76.39 0.46, 127.69 0.88, 180.42 0 M22.92 0 C62.15 1.31, 102.55 0.02, 180.42 0 M180.42 0 C196.12 0.85, 203.2 7.43, 203.33 22.92 M180.42 0 C197.54 1.11, 205.32 9.66, 203.33 22.92 M203.33 22.92 C202.5 36.27, 201.18 46.97, 203.33 68.75 M203.33 22.92 C203.81 41.52, 204.09 57.66, 203.33 68.75 M203.33 68.75 C203.34 83.3, 195.03 93.47, 180.42 91.67 M203.33 68.75 C203.08 85.32, 194.21 91.14, 180.42 91.67 M180.42 91.67 C134.18 92.84, 91.4 90.29, 22.92 91.67 M180.42 91.67 C120.03 90.28, 61.12 90.34, 22.92 91.67 M22.92 91.67 C6.6 91.63, 0.83 85.55, 0 68.75 M22.92 91.67 C6.65 93.18, 0.26 86.23, 0 68.75 M0 68.75 C1.02 52.12, 0.99 32.28, 0 22.92 M0 68.75 C-0.81 58.95, 0 48.67, 0 22.92 M0 22.92 C-1.13 6.23, 7.98 -1.33, 22.92 0 M0 22.92 C0.75 7.35, 8.55 2.29, 22.92 0" stroke="#1e1e1e" stroke-width="1" fill="none"></path></g><g transform="translate(662.333333333333 631.8166666666646) rotate(0 41 33.60000000000002)"><text x="41" y="27.0375" font-family="Cascadia, Segoe UI Emoji" font-size="28px" fill="#1e1e1e" text-anchor="middle" style="white-space: pre;" direction="ltr" dominant-baseline="alphabetic">Brave</text><text x="41" y="60.6375" font-family="Cascadia, Segoe UI Emoji" font-size="28px" fill="#1e1e1e" text-anchor="middle" style="white-space: pre;" direction="ltr" dominant-baseline="alphabetic">OSS</text></g><g stroke-linecap="round" transform="translate(488.33333333333303 723.7499999999977) rotate(0 101.66666666666663 45.83333333333337)"><path d="M22.92 0 C67.27 -1.04, 108.89 -1.34, 180.42 0 M22.92 0 C61.55 -0.44, 100.82 0.59, 180.42 0 M180.42 0 C196.36 -0.58, 201.86 6.01, 203.33 22.92 M180.42 0 C197.52 1.16, 203.47 6.61, 203.33 22.92 M203.33 22.92 C205.25 39.44, 203.59 52.85, 203.33 68.75 M203.33 22.92 C202.87 41.45, 203.31 58.79, 203.33 68.75 M203.33 68.75 C201.71 84.03, 196.32 93.24, 180.42 91.67 M203.33 68.75 C204.49 83.69, 194.43 93.21, 180.42 91.67 M180.42 91.67 C120.51 91.94, 57.16 90.1, 22.92 91.67 M180.42 91.67 C140.87 91.35, 102 91.1, 22.92 91.67 M22.92 91.67 C8.08 92.64, 0.9 85.69, 0 68.75 M22.92 91.67 C6.91 92.73, 1.91 84.66, 0 68.75 M0 68.75 C1.63 56.48, 1.41 44.64, 0 22.92 M0 68.75 C-0.86 58.52, -0.56 47.72, 0 22.92 M0 22.92 C-1.91 6.31, 8.93 0.27, 22.92 0 M0 22.92 C2.05 5.52, 6.65 -1.55, 22.92 0" stroke="#1e1e1e" stroke-width="1" fill="none"></path></g><g transform="translate(540.7999992370601 735.9833333333311) rotate(0 49.20000076293945 33.60000000000002)"><text x="49.20000076293945" y="27.0375" font-family="Cascadia, Segoe UI Emoji" font-size="28px" fill="#1e1e1e" text-anchor="middle" style="white-space: pre;" direction="ltr" dominant-baseline="alphabetic">Amazon</text><text x="49.20000076293945" y="60.6375" font-family="Cascadia, Segoe UI Emoji" font-size="28px" fill="#1e1e1e" text-anchor="middle" style="white-space: pre;" direction="ltr" dominant-baseline="alphabetic">OSS</text></g><g stroke-linecap="round"><g transform="translate(1048.3333333333328 754.5833333333312) rotate(0 -107.49999999999989 -0.8333333333332575)"><path d="M-0.52 -0.81 C-36.64 -0.91, -179.76 -1.48, -215.69 -1.68" stroke="#1e1e1e" stroke-width="1.5" fill="none" stroke-dasharray="8 9"></path></g></g><mask></mask><g stroke-linecap="round" transform="translate(56.666666666666515 161.24999999999955) rotate(0 135 105)"><path d="M32 0 C109.11 -0.63, 184.25 -1.5, 238 0 M32 0 C99.81 -1.56, 167.29 -1.66, 238 0 M238 0 C260.04 -1.35, 268.83 9.25, 270 32 M238 0 C258.3 0.9, 268.2 12.95, 270 32 M270 32 C270.13 80.03, 272.46 127.59, 270 178 M270 32 C270.11 73.13, 270.33 115.38, 270 178 M270 178 C269.75 198.33, 260.13 211.03, 238 210 M270 178 C271.69 201.08, 257.09 207.85, 238 210 M238 210 C158.13 211.04, 82.24 209.79, 32 210 M238 210 C178.44 209.32, 119.79 209.16, 32 210 M32 210 C11.4 211.32, 0.37 198.05, 0 178 M32 210 C11.6 209.03, -1.11 200.36, 0 178 M0 178 C0.69 126.92, 0.64 80.88, 0 32 M0 178 C-1.04 121.44, -0.14 63.66, 0 32 M0 32 C0.49 11.88, 12.03 0.29, 32 0 M0 32 C0.42 12.91, 8.93 -1.48, 32 0" stroke="#1e1e1e" stroke-width="1" fill="none"></path></g><g transform="translate(93.26666514078761 249.44999999999982) rotate(0 98.4000015258789 16.799999999999955)"><text x="98.4000015258789" y="27.0375" font-family="Cascadia, Segoe UI Emoji" font-size="28px" fill="#1e1e1e" text-anchor="middle" style="white-space: pre;" direction="ltr" dominant-baseline="alphabetic">Frontend app</text></g></svg>