<svg version="1.1" xmlns="http://www.w3.org/2000/svg" viewBox="0 0 2109.0205618201103 1066.082834792357" width="2109.0205618201103" height="1066.082834792357">
  <!-- svg-source:excalidraw -->
  
  <defs>
    <style class="style-fonts">
      @font-face {
        font-family: "Virgil";
        src: url("https://excalidraw.com/Virgil.woff2");
      }
      @font-face {
        font-family: "Cascadia";
        src: url("https://excalidraw.com/Cascadia.woff2");
      }
      @font-face {
        font-family: "Assistant";
        src: url("https://excalidraw.com/Assistant-Regular.woff2");
      }
    </style>
    
  </defs>
  <rect x="0" y="0" width="2109.0205618201103" height="1066.082834792357" fill="#ffffff"></rect><g stroke-linecap="round" transform="translate(1517.1137232399933 303.5892123901417) rotate(0 120.83622646280469 94.87881485227626)"><path d="M32 0 C102.2 -1.23, 169.91 -1.52, 209.67 0 M32 0 C74.84 -0.32, 119.02 0.17, 209.67 0 M209.67 0 C229.62 -1.27, 239.77 11.41, 241.67 32 M209.67 0 C228.71 2.09, 240.57 12.9, 241.67 32 M241.67 32 C243.03 72.53, 241.15 109.79, 241.67 157.76 M241.67 32 C241.81 64.99, 241.38 96.6, 241.67 157.76 M241.67 157.76 C239.85 180.89, 230.77 188.26, 209.67 189.76 M241.67 157.76 C242.92 180.79, 230.68 188.36, 209.67 189.76 M209.67 189.76 C153.38 186.82, 100.47 187.35, 32 189.76 M209.67 189.76 C144.77 190.7, 79.23 191.66, 32 189.76 M32 189.76 C9.87 188.8, -0.2 177.35, 0 157.76 M32 189.76 C11.42 190.58, 2.03 181.35, 0 157.76 M0 157.76 C0.79 113.18, -1.24 73.11, 0 32 M0 157.76 C0.56 120.91, 0.59 84.96, 0 32 M0 32 C-0.41 11.44, 11.93 0.8, 32 0 M0 32 C0.12 9.09, 8.46 -1.44, 32 0" stroke="#1e1e1e" stroke-width="1" fill="none"></path></g><g stroke-linecap="round" transform="translate(1633.474533907879 385.9368630166455) rotate(0 61.76073796987794 53.70498953902438)"><path d="M26.85 0 C53.65 1.02, 80.24 -1.38, 96.67 0 M26.85 0 C51.72 -0.09, 74.4 0.41, 96.67 0 M96.67 0 C116.35 0.69, 123.41 9.4, 123.52 26.85 M96.67 0 C116.78 0.11, 121.68 7.14, 123.52 26.85 M123.52 26.85 C125.59 43.82, 123.51 60.71, 123.52 80.56 M123.52 26.85 C123.4 43.4, 124.89 60.63, 123.52 80.56 M123.52 80.56 C121.9 100.08, 114.71 105.5, 96.67 107.41 M123.52 80.56 C122.52 96.88, 113.68 106.55, 96.67 107.41 M96.67 107.41 C74.03 105.94, 46.44 106.42, 26.85 107.41 M96.67 107.41 C79.12 107.23, 59.94 107.55, 26.85 107.41 M26.85 107.41 C7.88 105.45, 1.27 96.7, 0 80.56 M26.85 107.41 C9.34 107.44, -1.37 96.4, 0 80.56 M0 80.56 C-0.37 70.54, 0.41 55.23, 0 26.85 M0 80.56 C-0.33 66.64, 0.15 52.72, 0 26.85 M0 26.85 C0.01 6.99, 10.11 -0.45, 26.85 0 M0 26.85 C-1.66 9.7, 10.25 -1.69, 26.85 0" stroke="#1e1e1e" stroke-width="1" fill="none"></path></g><g transform="translate(1646.0352711148175 422.8418525556699) rotate(0 49.20000076293945 16.799999999999955)"><text x="49.20000076293945" y="27.0375" font-family="Cascadia, Segoe UI Emoji" font-size="28px" fill="#1e1e1e" text-anchor="middle" style="white-space: pre;" direction="ltr" dominant-baseline="alphabetic">pg_tde</text></g><g transform="translate(1535.0745323820001 334.0220397955886) rotate(0 98.4000015258789 16.799999999999955)"><text x="98.4000015258789" y="27.0375" font-family="Cascadia, Segoe UI Emoji" font-size="28px" fill="#1e1e1e" text-anchor="middle" style="white-space: pre;" direction="ltr" dominant-baseline="alphabetic">Postgres Pod</text></g><g stroke-linecap="round"><g transform="translate(1765.9468414374724 439.5400792579453) rotate(0 52.8099063800405 0.4526447744112829)"><path d="M-0.58 0.56 C17.03 0.93, 88.48 1.05, 105.98 1.2 M1.32 -0.19 C18.77 -0.12, 87.66 -0.7, 105.23 -0.76" stroke="#1e1e1e" stroke-width="1" fill="none"></path></g><g transform="translate(1765.9468414374724 439.5400792579453) rotate(0 52.8099063800405 0.4526447744112829)"><path d="M81.79 7.93 C90.48 5.8, 97.73 0.4, 105.23 -0.76 M81.79 7.93 C89.27 4.69, 97.63 2.06, 105.23 -0.76" stroke="#1e1e1e" stroke-width="1" fill="none"></path></g><g transform="translate(1765.9468414374724 439.5400792579453) rotate(0 52.8099063800405 0.4526447744112829)"><path d="M81.68 -9.17 C90.27 -5.69, 97.55 -5.49, 105.23 -0.76 M81.68 -9.17 C89.18 -6.46, 97.58 -3.15, 105.23 -0.76" stroke="#1e1e1e" stroke-width="1" fill="none"></path></g></g><mask></mask><g stroke-linecap="round" transform="translate(495.7390189722754 10) rotate(0 650.9050722836423 523.0414173961785)"><path d="M32 0 C454.02 -1.11, 875.8 0, 1269.81 0 M32 0 C313.53 3.89, 594.99 4.15, 1269.81 0 M1269.81 0 C1290.25 1.27, 1302.02 12.39, 1301.81 32 M1269.81 0 C1292.26 1.47, 1302.29 10.57, 1301.81 32 M1301.81 32 C1301.3 401.94, 1300.59 770.92, 1301.81 1014.08 M1301.81 32 C1305.91 410.29, 1305.6 788.6, 1301.81 1014.08 M1301.81 1014.08 C1300.15 1036.14, 1289.5 1047.95, 1269.81 1046.08 M1301.81 1014.08 C1302.2 1037.53, 1291.76 1046.08, 1269.81 1046.08 M1269.81 1046.08 C929.54 1048.93, 588.97 1047.89, 32 1046.08 M1269.81 1046.08 C900.83 1043.03, 531.88 1043.16, 32 1046.08 M32 1046.08 C10.61 1047.82, -0.03 1034.02, 0 1014.08 M32 1046.08 C11.91 1044.66, -2.05 1033.64, 0 1014.08 M0 1014.08 C2.3 674.67, 2.3 333.21, 0 32 M0 1014.08 C-2.89 692.02, -2.94 370.88, 0 32 M0 32 C-1.27 8.92, 8.7 1.56, 32 0 M0 32 C0.23 11.22, 8.7 -0.29, 32 0" stroke="#1e1e1e" stroke-width="1" fill="none"></path></g><g transform="translate(530.9039262414772 47.28451261459077) rotate(0 24.600000381469727 16.799999999999955)"><text x="24.600000381469727" y="27.0375" font-family="Cascadia, Segoe UI Emoji" font-size="28px" fill="#1e1e1e" text-anchor="middle" style="white-space: pre;" direction="ltr" dominant-baseline="alphabetic">K8S</text></g><g stroke-linecap="round" transform="translate(1501.105011618973 44.453782434359255) rotate(0 128.89197489365847 68.02632008276419)"><path d="M32 0 C77.63 0.85, 123.42 -0.06, 225.78 0 M32 0 C71.58 0.72, 113.26 0.22, 225.78 0 M225.78 0 C246.06 0.75, 258.85 10.69, 257.78 32 M225.78 0 C247.88 0.55, 258.67 12.35, 257.78 32 M257.78 32 C259.38 59.21, 259.27 86.32, 257.78 104.05 M257.78 32 C258.63 51.21, 257.04 69.92, 257.78 104.05 M257.78 104.05 C257.26 127.13, 246.22 136.92, 225.78 136.05 M257.78 104.05 C257.74 127.49, 247.32 138.11, 225.78 136.05 M225.78 136.05 C171.51 134.62, 115.38 137.27, 32 136.05 M225.78 136.05 C175.96 136.36, 127.76 136.66, 32 136.05 M32 136.05 C12.51 137.95, 0.37 126.22, 0 104.05 M32 136.05 C12.77 135.22, 1.16 124.97, 0 104.05 M0 104.05 C-0.25 79.95, -0.35 51.78, 0 32 M0 104.05 C-1.41 77.94, -0.67 50.45, 0 32 M0 32 C-1.55 10.56, 9.32 0.84, 32 0 M0 32 C0.74 10.46, 10 2.17, 32 0" stroke="#1e1e1e" stroke-width="1" fill="none"></path></g><g transform="translate(1547.9969865126318 78.8801025171233) rotate(0 82 33.59999999999991)"><text x="82" y="27.0375" font-family="Cascadia, Segoe UI Emoji" font-size="28px" fill="#1e1e1e" text-anchor="middle" style="white-space: pre;" direction="ltr" dominant-baseline="alphabetic">Hashicorp </text><text x="82" y="60.6375" font-family="Cascadia, Segoe UI Emoji" font-size="28px" fill="#1e1e1e" text-anchor="middle" style="white-space: pre;" direction="ltr" dominant-baseline="alphabetic">Vault</text></g><g stroke-linecap="round"><g transform="translate(1626.4166538766967 196.61791946159428) rotate(0 0 44.75415794918695)"><path d="M0.43 -0.18 C0.22 14.77, -0.55 74.15, -0.66 89.29 M-0.8 -1.31 C-0.68 13.85, 1.75 75.68, 1.71 90.72" stroke="#1e1e1e" stroke-width="1" fill="none"></path></g><g transform="translate(1626.4166538766967 196.61791946159428) rotate(0 0 44.75415794918695)"><path d="M-7.34 67.41 C-4.5 74.53, -1.36 83.58, 1.71 90.72 M-7.34 67.41 C-4.28 76.17, -0.1 86.21, 1.71 90.72" stroke="#1e1e1e" stroke-width="1" fill="none"></path></g><g transform="translate(1626.4166538766967 196.61791946159428) rotate(0 0 44.75415794918695)"><path d="M9.76 67.05 C6.54 74.36, 3.62 83.53, 1.71 90.72 M9.76 67.05 C6.06 75.84, 3.47 86.03, 1.71 90.72" stroke="#1e1e1e" stroke-width="1" fill="none"></path></g></g><mask></mask><g stroke-linecap="round" transform="translate(1880.6202710280782 329.09022699118805) rotate(0 109.20014539601607 109.20014539601607)"><path d="M32 0 C79.27 2.64, 124.98 0.78, 186.4 0 M32 0 C78.93 -0.45, 125.59 0.13, 186.4 0 M186.4 0 C208.46 0.38, 218.19 9.51, 218.4 32 M186.4 0 C205.77 1.6, 219.6 11.06, 218.4 32 M218.4 32 C218.15 85.7, 220.27 138.93, 218.4 186.4 M218.4 32 C218.95 86.32, 220.13 139.31, 218.4 186.4 M218.4 186.4 C217.59 208.35, 207.86 218.3, 186.4 218.4 M218.4 186.4 C217.74 208.11, 206.96 216.94, 186.4 218.4 M186.4 218.4 C136.53 218.62, 83.1 219.61, 32 218.4 M186.4 218.4 C143.9 218.37, 100.55 218.58, 32 218.4 M32 218.4 C10.52 219.3, 0.19 207.07, 0 186.4 M32 218.4 C9.76 219.06, 0.15 207, 0 186.4 M0 186.4 C0.24 127.61, 2.41 70.53, 0 32 M0 186.4 C0.17 147.57, -0.55 107.27, 0 32 M0 32 C-0.27 10.76, 8.88 -0.52, 32 0 M0 32 C-1.97 12.63, 12.6 -1.25, 32 0" stroke="#1e1e1e" stroke-width="1" fill="none"></path></g><g transform="translate(1932.4204148982153 421.49037238720393) rotate(0 57.400001525878906 16.799999999999955)"><text x="57.400001525878906" y="27.0375" font-family="Cascadia, Segoe UI Emoji" font-size="28px" fill="#1e1e1e" text-anchor="middle" style="white-space: pre;" direction="ltr" dominant-baseline="alphabetic">Storage</text></g><g stroke-linecap="round" transform="translate(520.0938693727952 121.4309341069602) rotate(0 125.31164225772352 221.9806234279672)"><path d="M32 0 C86.54 -3.06, 140.52 -1.66, 218.62 0 M32 0 C71.68 1.1, 110.46 -0.27, 218.62 0 M218.62 0 C239.97 -1.08, 251.79 10.1, 250.62 32 M218.62 0 C241.29 2, 249.37 11.65, 250.62 32 M250.62 32 C250.86 160.71, 251.88 287.91, 250.62 411.96 M250.62 32 C251.28 131.39, 251.15 231.27, 250.62 411.96 M250.62 411.96 C249.64 432.1, 237.99 442.89, 218.62 443.96 M250.62 411.96 C250.65 432.88, 238.19 445.48, 218.62 443.96 M218.62 443.96 C153.61 443.56, 91.39 442.74, 32 443.96 M218.62 443.96 C164.34 444.6, 109.6 444.75, 32 443.96 M32 443.96 C11.16 444.58, -1.86 435.07, 0 411.96 M32 443.96 C11.43 444.56, -0.4 433.33, 0 411.96 M0 411.96 C2.87 270.11, 1.23 129.32, 0 32 M0 411.96 C2.03 317.6, 1.2 223.81, 0 32 M0 32 C1.72 9.12, 10.77 -0.63, 32 0 M0 32 C0.26 9.4, 12.2 -1.77, 32 0" stroke="#1e1e1e" stroke-width="1" fill="none"></path></g><g transform="translate(620.8055112490491 142.91292992256967) rotate(0 24.600000381469727 16.799999999999955)"><text x="24.600000381469727" y="27.0375" font-family="Cascadia, Segoe UI Emoji" font-size="28px" fill="#1e1e1e" text-anchor="middle" style="white-space: pre;" direction="ltr" dominant-baseline="alphabetic">Pod</text></g><g stroke-linecap="round" transform="translate(543.3660315063727 191.2474205076919) rotate(0 100.2493138061786 55.5)"><path d="M27.75 0 C59.39 1.62, 90.02 0.26, 172.75 0 M27.75 0 C61.74 -1.76, 93.69 0.04, 172.75 0 M172.75 0 C192.57 -0.66, 200.69 11.17, 200.5 27.75 M172.75 0 C190 -0.09, 201.09 8.68, 200.5 27.75 M200.5 27.75 C200.32 47, 200.91 67.72, 200.5 83.25 M200.5 27.75 C201.59 41.37, 201.27 52.82, 200.5 83.25 M200.5 83.25 C200.1 101.16, 190.69 109.37, 172.75 111 M200.5 83.25 C198.94 101.67, 190.4 110.01, 172.75 111 M172.75 111 C138.54 113.57, 101.62 110.57, 27.75 111 M172.75 111 C132.67 110.79, 91.94 110.5, 27.75 111 M27.75 111 C11.12 111.85, -0.09 100.16, 0 83.25 M27.75 111 C9.33 109.22, -1.13 99.84, 0 83.25 M0 83.25 C-0.92 63.27, -0.02 40.6, 0 27.75 M0 83.25 C-0.2 66.02, 0.62 47.24, 0 27.75 M0 27.75 C0.89 9.27, 9.44 -0.8, 27.75 0 M0 27.75 C0.95 8.43, 8.82 -0.73, 27.75 0" stroke="#1e1e1e" stroke-width="1" fill="none"></path></g><g transform="translate(569.8153422607935 213.147420507692) rotate(0 73.80000305175781 33.59999999999991)"><text x="73.80000305175781" y="27.0375" font-family="Cascadia, Segoe UI Emoji" font-size="28px" fill="#1e1e1e" text-anchor="middle" style="white-space: pre;" direction="ltr" dominant-baseline="alphabetic">API </text><text x="73.80000305175781" y="60.6375" font-family="Cascadia, Segoe UI Emoji" font-size="28px" fill="#1e1e1e" text-anchor="middle" style="white-space: pre;" direction="ltr" dominant-baseline="alphabetic">container</text></g><g stroke-linecap="round" transform="translate(543.3660315063727 311.1837196685042) rotate(0 100.2493138061786 55.5)"><path d="M27.75 0 C60.58 -0.36, 92.37 0.6, 172.75 0 M27.75 0 C75.06 0.3, 120.94 0.74, 172.75 0 M172.75 0 C191.52 0.38, 200.04 9.59, 200.5 27.75 M172.75 0 C190.72 -1.08, 202.23 8.65, 200.5 27.75 M200.5 27.75 C199.73 45.56, 198.46 66.77, 200.5 83.25 M200.5 27.75 C201.44 46.65, 200.53 65.64, 200.5 83.25 M200.5 83.25 C198.68 102.11, 190.24 109.84, 172.75 111 M200.5 83.25 C200.71 100.33, 192.64 110.73, 172.75 111 M172.75 111 C123.95 110.17, 78.37 112.4, 27.75 111 M172.75 111 C117.41 112.62, 64.23 111.71, 27.75 111 M27.75 111 C9.74 110.1, -0.99 102.31, 0 83.25 M27.75 111 C11.45 109.63, 0.47 103.56, 0 83.25 M0 83.25 C-1.3 67.25, -0.75 52.24, 0 27.75 M0 83.25 C0.61 65.74, -0.22 49.42, 0 27.75 M0 27.75 C1 9.54, 10.21 -0.67, 27.75 0 M0 27.75 C0.91 8.04, 8.18 0.5, 27.75 0" stroke="#1e1e1e" stroke-width="1" fill="none"></path></g><g transform="translate(553.4153483643091 333.0837196685043) rotate(0 90.19999694824219 33.59999999999991)"><text x="90.19999694824219" y="27.0375" font-family="Cascadia, Segoe UI Emoji" font-size="28px" fill="#1e1e1e" text-anchor="middle" style="white-space: pre;" direction="ltr" dominant-baseline="alphabetic">Attestation</text><text x="90.19999694824219" y="60.6375" font-family="Cascadia, Segoe UI Emoji" font-size="28px" fill="#1e1e1e" text-anchor="middle" style="white-space: pre;" direction="ltr" dominant-baseline="alphabetic">sidecar</text></g><g stroke-linecap="round" transform="translate(543.3660315063727 427.54453033639084) rotate(0 100.2493138061786 55.5)"><path d="M27.75 0 C61.58 0.02, 93.98 -0.79, 172.75 0 M27.75 0 C73.82 0.51, 119.66 0.33, 172.75 0 M172.75 0 C192.36 0.59, 200.52 8.75, 200.5 27.75 M172.75 0 C189.95 1.06, 202.19 7.2, 200.5 27.75 M200.5 27.75 C203.01 39.95, 200.4 49.4, 200.5 83.25 M200.5 27.75 C199.36 45.16, 199.26 64.83, 200.5 83.25 M200.5 83.25 C201.16 99.82, 189.54 111.66, 172.75 111 M200.5 83.25 C199.66 99.98, 192.99 112.52, 172.75 111 M172.75 111 C114.88 108.64, 60.15 109.46, 27.75 111 M172.75 111 C117.46 110.96, 64.87 110.76, 27.75 111 M27.75 111 C10.56 111.72, -1.03 100.27, 0 83.25 M27.75 111 C11.34 112.52, -0.77 102.91, 0 83.25 M0 83.25 C0.07 72.2, -0.25 57.96, 0 27.75 M0 83.25 C-0.49 67.07, 0.69 52.56, 0 27.75 M0 27.75 C1.44 9.73, 9.72 0.82, 27.75 0 M0 27.75 C-1.37 9.48, 10.33 0.13, 27.75 0" stroke="#1e1e1e" stroke-width="1" fill="none"></path></g><g transform="translate(586.2153437866724 449.4445303363909) rotate(0 57.400001525878906 33.59999999999991)"><text x="57.400001525878906" y="27.0375" font-family="Cascadia, Segoe UI Emoji" font-size="28px" fill="#1e1e1e" text-anchor="middle" style="white-space: pre;" direction="ltr" dominant-baseline="alphabetic">aTLS </text><text x="57.400001525878906" y="60.6375" font-family="Cascadia, Segoe UI Emoji" font-size="28px" fill="#1e1e1e" text-anchor="middle" style="white-space: pre;" direction="ltr" dominant-baseline="alphabetic">sidecar</text></g><g stroke-linecap="round" transform="translate(1130.540583799705 110.68993619915545) rotate(0 125.31164225772352 221.9806234279672)"><path d="M32 0 C102.25 3.37, 175.51 1.46, 218.62 0 M32 0 C75.26 -0.65, 118.86 -1.28, 218.62 0 M218.62 0 C238.04 -1.67, 251.19 11.52, 250.62 32 M218.62 0 C238.74 0.16, 252.35 10.67, 250.62 32 M250.62 32 C249.26 141.7, 250.29 252.51, 250.62 411.96 M250.62 32 C252.87 128.52, 252.26 224.78, 250.62 411.96 M250.62 411.96 C251.05 432.99, 240.89 445.85, 218.62 443.96 M250.62 411.96 C252.7 434.95, 238.83 441.76, 218.62 443.96 M218.62 443.96 C178.53 443.24, 140.35 443.49, 32 443.96 M218.62 443.96 C163.78 444.68, 110.92 444.68, 32 443.96 M32 443.96 C11.75 443.38, 0.66 432, 0 411.96 M32 443.96 C9.22 444.92, -1.86 434.46, 0 411.96 M0 411.96 C-2.24 287.67, -1.88 161.67, 0 32 M0 411.96 C2.15 331.09, 1.99 251.09, 0 32 M0 32 C1.25 12.49, 8.78 -0.67, 32 0 M0 32 C1.19 9.8, 12.57 2.09, 32 0" stroke="#1e1e1e" stroke-width="1" fill="none"></path></g><g transform="translate(1231.252225675959 132.17193201476493) rotate(0 24.600000381469727 16.799999999999955)"><text x="24.600000381469727" y="27.0375" font-family="Cascadia, Segoe UI Emoji" font-size="28px" fill="#1e1e1e" text-anchor="middle" style="white-space: pre;" direction="ltr" dominant-baseline="alphabetic">Pod</text></g><g stroke-linecap="round" transform="translate(1153.8127459332827 180.50642259988763) rotate(0 100.24931380617863 55.5)"><path d="M27.75 0 C81.52 -1.12, 138.47 0.65, 172.75 0 M27.75 0 C66.29 0.47, 107.02 1.74, 172.75 0 M172.75 0 C190.19 0.14, 202 9.25, 200.5 27.75 M172.75 0 C191.06 -0.3, 200.18 7.2, 200.5 27.75 M200.5 27.75 C199.54 40.9, 202.01 51.65, 200.5 83.25 M200.5 27.75 C200.43 47.19, 200.68 67.87, 200.5 83.25 M200.5 83.25 C202.3 103.19, 190.27 109.08, 172.75 111 M200.5 83.25 C198.36 103.73, 190.4 109.29, 172.75 111 M172.75 111 C129.33 112.5, 86.73 110.11, 27.75 111 M172.75 111 C125.44 111.15, 77.39 110.79, 27.75 111 M27.75 111 C7.99 111.83, -1.61 102.76, 0 83.25 M27.75 111 C9.94 112.53, -0.89 100.36, 0 83.25 M0 83.25 C-1.6 59.69, 1.65 40.21, 0 27.75 M0 83.25 C0.6 71.59, -0.97 57.77, 0 27.75 M0 27.75 C1.03 8.49, 10.91 1.82, 27.75 0 M0 27.75 C-0.19 10.24, 9.93 2.07, 27.75 0" stroke="#1e1e1e" stroke-width="1" fill="none"></path></g><g transform="translate(1180.2620566877035 202.40642259988772) rotate(0 73.80000305175781 33.59999999999991)"><text x="73.80000305175781" y="27.0375" font-family="Cascadia, Segoe UI Emoji" font-size="28px" fill="#1e1e1e" text-anchor="middle" style="white-space: pre;" direction="ltr" dominant-baseline="alphabetic">ML </text><text x="73.80000305175781" y="60.6375" font-family="Cascadia, Segoe UI Emoji" font-size="28px" fill="#1e1e1e" text-anchor="middle" style="white-space: pre;" direction="ltr" dominant-baseline="alphabetic">container</text></g><g stroke-linecap="round" transform="translate(1153.8127459332827 300.4427217606999) rotate(0 100.24931380617863 55.5)"><path d="M27.75 0 C60.98 1.24, 93.52 -2.23, 172.75 0 M27.75 0 C58.61 -0.55, 91.28 -0.62, 172.75 0 M172.75 0 C191.08 -0.26, 200.22 7.47, 200.5 27.75 M172.75 0 C189.09 -0.07, 198.3 8.17, 200.5 27.75 M200.5 27.75 C201.98 48.1, 202.19 70.92, 200.5 83.25 M200.5 27.75 C201.66 44.28, 200.26 58.42, 200.5 83.25 M200.5 83.25 C198.64 103.47, 190.51 109.52, 172.75 111 M200.5 83.25 C200.46 100.53, 191.5 110.79, 172.75 111 M172.75 111 C120.11 112.11, 66.88 111.32, 27.75 111 M172.75 111 C132.8 110.47, 93.31 110.57, 27.75 111 M27.75 111 C9.85 112.33, -0.78 100.54, 0 83.25 M27.75 111 C11.4 110.31, 1.02 99.72, 0 83.25 M0 83.25 C-1.88 71.47, -0.41 60.75, 0 27.75 M0 83.25 C1.04 61.15, 1.35 40.71, 0 27.75 M0 27.75 C-0.17 10.11, 9.84 1.8, 27.75 0 M0 27.75 C1.18 11.25, 8.44 -0.51, 27.75 0" stroke="#1e1e1e" stroke-width="1" fill="none"></path></g><g transform="translate(1163.8620627912192 322.3427217607) rotate(0 90.19999694824219 33.59999999999991)"><text x="90.19999694824219" y="27.0375" font-family="Cascadia, Segoe UI Emoji" font-size="28px" fill="#1e1e1e" text-anchor="middle" style="white-space: pre;" direction="ltr" dominant-baseline="alphabetic">Attestation</text><text x="90.19999694824219" y="60.6375" font-family="Cascadia, Segoe UI Emoji" font-size="28px" fill="#1e1e1e" text-anchor="middle" style="white-space: pre;" direction="ltr" dominant-baseline="alphabetic">sidecar</text></g><g stroke-linecap="round" transform="translate(1153.8127459332827 416.80353242858564) rotate(0 100.24931380617863 55.5)"><path d="M27.75 0 C80.83 1.95, 138.1 0.33, 172.75 0 M27.75 0 C72.2 -0.13, 116.67 -0.89, 172.75 0 M172.75 0 C189.37 -0.06, 198.59 8.31, 200.5 27.75 M172.75 0 C193.2 1.76, 201.66 10.47, 200.5 27.75 M200.5 27.75 C200.55 42.51, 202.74 57.22, 200.5 83.25 M200.5 27.75 C199.29 49.26, 199.86 68.31, 200.5 83.25 M200.5 83.25 C200.46 100.69, 191.46 110.82, 172.75 111 M200.5 83.25 C202.04 102.27, 190.04 111.69, 172.75 111 M172.75 111 C115.13 112.45, 57.36 110.52, 27.75 111 M172.75 111 C123.53 112.4, 73.32 111.13, 27.75 111 M27.75 111 C11.12 110.4, 0.89 99.98, 0 83.25 M27.75 111 C7.27 112.71, 0.73 100.06, 0 83.25 M0 83.25 C1.83 64.45, -0.67 50.46, 0 27.75 M0 83.25 C-0.54 69.13, -0.17 55.05, 0 27.75 M0 27.75 C1.03 10.99, 8.55 -0.44, 27.75 0 M0 27.75 C1.75 9.14, 7.77 -0.75, 27.75 0" stroke="#1e1e1e" stroke-width="1" fill="none"></path></g><g transform="translate(1196.6620582135824 438.70353242858573) rotate(0 57.400001525878906 33.59999999999991)"><text x="57.400001525878906" y="27.0375" font-family="Cascadia, Segoe UI Emoji" font-size="28px" fill="#1e1e1e" text-anchor="middle" style="white-space: pre;" direction="ltr" dominant-baseline="alphabetic">aTLS </text><text x="57.400001525878906" y="60.6375" font-family="Cascadia, Segoe UI Emoji" font-size="28px" fill="#1e1e1e" text-anchor="middle" style="white-space: pre;" direction="ltr" dominant-baseline="alphabetic">sidecar</text></g><g stroke-linecap="round" transform="translate(836.9533076530391 560.0216820089927) rotate(0 125.31164225772352 221.9806234279672)"><path d="M32 0 C77.27 -0.53, 123.54 -0.62, 218.62 0 M32 0 C78.34 0, 125.74 0.27, 218.62 0 M218.62 0 C240.4 -0.86, 250.16 9.25, 250.62 32 M218.62 0 C241.41 -2.19, 251.27 12.22, 250.62 32 M250.62 32 C251.3 120.09, 251.09 209.1, 250.62 411.96 M250.62 32 C250.9 173.4, 250.54 315.68, 250.62 411.96 M250.62 411.96 C250.59 434.53, 240.16 445.2, 218.62 443.96 M250.62 411.96 C252.64 432.38, 240.25 445.91, 218.62 443.96 M218.62 443.96 C163.85 440.83, 108.21 441.35, 32 443.96 M218.62 443.96 C151.66 442.99, 84.43 441.78, 32 443.96 M32 443.96 C9.79 444.99, 0.97 431.4, 0 411.96 M32 443.96 C10.06 445.02, -1.88 431.58, 0 411.96 M0 411.96 C1.21 330.13, -0.44 248.32, 0 32 M0 411.96 C-2.63 289.36, -2.38 166.35, 0 32 M0 32 C1.61 10.54, 10.32 1.26, 32 0 M0 32 C-2.12 9.78, 8.82 -1.31, 32 0" stroke="#1e1e1e" stroke-width="1" fill="none"></path></g><g transform="translate(937.664949529293 581.5036778246022) rotate(0 24.600000381469727 16.799999999999955)"><text x="24.600000381469727" y="27.0375" font-family="Cascadia, Segoe UI Emoji" font-size="28px" fill="#1e1e1e" text-anchor="middle" style="white-space: pre;" direction="ltr" dominant-baseline="alphabetic">Pod</text></g><g stroke-linecap="round" transform="translate(860.2254697866168 629.8381684097249) rotate(0 100.24931380617863 55.5)"><path d="M27.75 0 C62.08 2.88, 97.21 -0.98, 172.75 0 M27.75 0 C57.03 0.61, 85.63 0.33, 172.75 0 M172.75 0 C192.51 -1.9, 201.06 10.6, 200.5 27.75 M172.75 0 C189.71 0.56, 198.22 9.49, 200.5 27.75 M200.5 27.75 C201.93 42.48, 200.25 57.18, 200.5 83.25 M200.5 27.75 C200.23 40.57, 200.34 52.77, 200.5 83.25 M200.5 83.25 C202.26 100.95, 191.51 112.7, 172.75 111 M200.5 83.25 C200.41 99.99, 189.54 111.62, 172.75 111 M172.75 111 C143.04 110.17, 109.53 109.47, 27.75 111 M172.75 111 C122.53 110.39, 73.67 108.93, 27.75 111 M27.75 111 C8.72 111.92, -1.63 100.26, 0 83.25 M27.75 111 C7.31 110.77, -0.24 103.64, 0 83.25 M0 83.25 C0.77 68.15, -0.29 47.55, 0 27.75 M0 83.25 C1.08 64.01, 0.11 45.52, 0 27.75 M0 27.75 C-1.85 8.48, 7.64 -1.14, 27.75 0 M0 27.75 C1.02 9.02, 7.31 -1.92, 27.75 0" stroke="#1e1e1e" stroke-width="1" fill="none"></path></g><g transform="translate(886.6747805410376 651.738168409725) rotate(0 73.80000305175781 33.59999999999991)"><text x="73.80000305175781" y="27.0375" font-family="Cascadia, Segoe UI Emoji" font-size="28px" fill="#1e1e1e" text-anchor="middle" style="white-space: pre;" direction="ltr" dominant-baseline="alphabetic">Chrome </text><text x="73.80000305175781" y="60.6375" font-family="Cascadia, Segoe UI Emoji" font-size="28px" fill="#1e1e1e" text-anchor="middle" style="white-space: pre;" direction="ltr" dominant-baseline="alphabetic">container</text></g><g stroke-linecap="round" transform="translate(860.2254697866168 749.7744675705371) rotate(0 100.24931380617863 55.5)"><path d="M27.75 0 C83.67 -0.27, 142.14 1.8, 172.75 0 M27.75 0 C65.65 0.08, 102.57 1.7, 172.75 0 M172.75 0 C189.91 0.48, 198.52 9.46, 200.5 27.75 M172.75 0 C190.38 -0.15, 200.56 10.94, 200.5 27.75 M200.5 27.75 C198.84 43.94, 200.19 61.93, 200.5 83.25 M200.5 27.75 C201.43 47.43, 200.68 68.76, 200.5 83.25 M200.5 83.25 C200.43 100.22, 189.77 111.54, 172.75 111 M200.5 83.25 C198.49 101.98, 189.84 112.31, 172.75 111 M172.75 111 C129.72 108.7, 83.4 109.66, 27.75 111 M172.75 111 C121.52 110.09, 70 108.89, 27.75 111 M27.75 111 C7.56 110.8, -0.21 103.39, 0 83.25 M27.75 111 C9.36 109.73, 0.26 102.29, 0 83.25 M0 83.25 C1.08 60.54, 0.64 41.45, 0 27.75 M0 83.25 C-0.83 66.56, -0.71 50.07, 0 27.75 M0 27.75 C0.89 9.05, 7.56 -1.67, 27.75 0 M0 27.75 C-1.8 8.57, 10.46 -1.46, 27.75 0" stroke="#1e1e1e" stroke-width="1" fill="none"></path></g><g transform="translate(870.2747866445533 771.6744675705372) rotate(0 90.19999694824219 33.59999999999991)"><text x="90.19999694824219" y="27.0375" font-family="Cascadia, Segoe UI Emoji" font-size="28px" fill="#1e1e1e" text-anchor="middle" style="white-space: pre;" direction="ltr" dominant-baseline="alphabetic">Attestation</text><text x="90.19999694824219" y="60.6375" font-family="Cascadia, Segoe UI Emoji" font-size="28px" fill="#1e1e1e" text-anchor="middle" style="white-space: pre;" direction="ltr" dominant-baseline="alphabetic">sidecar</text></g><g stroke-linecap="round" transform="translate(860.2254697866168 866.1352782384229) rotate(0 100.24931380617863 55.5)"><path d="M27.75 0 C58.57 -0.78, 89.69 0.94, 172.75 0 M27.75 0 C56.79 -0.74, 86.18 -0.87, 172.75 0 M172.75 0 C190.5 -0.13, 200.55 10.72, 200.5 27.75 M172.75 0 C191.44 -0.25, 200.85 7.41, 200.5 27.75 M200.5 27.75 C201.67 42.05, 201.67 57.71, 200.5 83.25 M200.5 27.75 C200.53 41.42, 199.83 56.89, 200.5 83.25 M200.5 83.25 C198.75 101.95, 190.02 112.14, 172.75 111 M200.5 83.25 C200.56 100.02, 190.51 112, 172.75 111 M172.75 111 C143.56 111.34, 110.42 109.84, 27.75 111 M172.75 111 C121.72 109.82, 72.27 110.74, 27.75 111 M27.75 111 C9.35 109.9, 0.22 102.22, 0 83.25 M27.75 111 C11.34 110.31, -2.13 102.8, 0 83.25 M0 83.25 C-0.26 69.05, 1.13 53.7, 0 27.75 M0 83.25 C0.89 68.64, -0.4 53.4, 0 27.75 M0 27.75 C-1.57 8.66, 10.3 -1.27, 27.75 0 M0 27.75 C1.08 7.89, 10.15 -1.09, 27.75 0" stroke="#1e1e1e" stroke-width="1" fill="none"></path></g><g transform="translate(903.0747820669166 888.035278238423) rotate(0 57.400001525878906 33.59999999999991)"><text x="57.400001525878906" y="27.0375" font-family="Cascadia, Segoe UI Emoji" font-size="28px" fill="#1e1e1e" text-anchor="middle" style="white-space: pre;" direction="ltr" dominant-baseline="alphabetic">aTLS </text><text x="57.400001525878906" y="60.6375" font-family="Cascadia, Segoe UI Emoji" font-size="28px" fill="#1e1e1e" text-anchor="middle" style="white-space: pre;" direction="ltr" dominant-baseline="alphabetic">sidecar</text></g><g stroke-linecap="round" transform="translate(10 152.75884467139076) rotate(0 119.04606014483727 97.56406432922745)"><path d="M32 0 C91.38 0.09, 148.05 -1.4, 206.09 0 M32 0 C77.85 0.89, 123.98 -0.26, 206.09 0 M206.09 0 C227.07 -1.48, 238.98 11.67, 238.09 32 M206.09 0 C229.07 -2.08, 236.13 8.63, 238.09 32 M238.09 32 C238.68 59.72, 237.83 86.42, 238.09 163.13 M238.09 32 C237.43 61.48, 238.04 88.59, 238.09 163.13 M238.09 163.13 C239.2 183.62, 227.88 195.52, 206.09 195.13 M238.09 163.13 C240.01 185.94, 228.24 196.04, 206.09 195.13 M206.09 195.13 C152.78 191.9, 100.54 194.24, 32 195.13 M206.09 195.13 C162.43 196.9, 119.69 196.15, 32 195.13 M32 195.13 C12.34 194.11, 1.28 184.83, 0 163.13 M32 195.13 C10.13 195.97, -0.35 182.74, 0 163.13 M0 163.13 C-1.96 131.34, -2.24 102.7, 0 32 M0 163.13 C-0.54 124.02, -0.37 85.09, 0 32 M0 32 C-0.29 10.93, 12.21 0.91, 32 0 M0 32 C-1.72 10.38, 10.01 1.62, 32 0" stroke="#1e1e1e" stroke-width="1" fill="none"></path></g><g transform="translate(63.446061670716176 233.52290900061826) rotate(0 65.5999984741211 16.799999999999955)"><text x="65.5999984741211" y="27.0375" font-family="Cascadia, Segoe UI Emoji" font-size="28px" fill="#1e1e1e" text-anchor="middle" style="white-space: pre;" direction="ltr" dominant-baseline="alphabetic">Frontend</text></g><g stroke-linecap="round"><g transform="translate(264.20361715138176 231.52616266196037) rotate(0 128.89197489365847 0)"><path d="M0.18 -0.46 C42.92 -0.53, 214.54 -0.59, 257.53 -0.47 M-1.18 -1.74 C41.28 -1.65, 213.34 0.25, 256.45 0.82" stroke="#1e1e1e" stroke-width="1" fill="none"></path></g><g transform="translate(264.20361715138176 231.52616266196037) rotate(0 128.89197489365847 0)"><path d="M232.85 9.09 C241.29 5.41, 250.46 3.11, 256.45 0.82 M232.85 9.09 C240.17 5.92, 248.34 4.52, 256.45 0.82" stroke="#1e1e1e" stroke-width="1" fill="none"></path></g><g transform="translate(264.20361715138176 231.52616266196037) rotate(0 128.89197489365847 0)"><path d="M233.06 -8.01 C241.41 -5.03, 250.49 -0.67, 256.45 0.82 M233.06 -8.01 C240.44 -5.7, 248.55 -1.63, 256.45 0.82" stroke="#1e1e1e" stroke-width="1" fill="none"></path></g></g><mask></mask><g stroke-linecap="round"><g transform="translate(516.6170679847961 260.16882374944) rotate(0 -124.41655909873964 0)"><path d="M-0.26 -0.47 C-41.71 -0.36, -207.26 0.35, -248.53 0.24 M1.81 -1.77 C-39.79 -1.99, -207.66 -1.98, -249.32 -1.75" stroke="#1e1e1e" stroke-width="1" fill="none"></path></g><g transform="translate(516.6170679847961 260.16882374944) rotate(0 -124.41655909873964 0)"><path d="M-225.85 -10.36 C-234.06 -7.2, -240.27 -3.43, -249.32 -1.75 M-225.85 -10.36 C-230.23 -8.26, -234.77 -7.91, -249.32 -1.75" stroke="#1e1e1e" stroke-width="1" fill="none"></path></g><g transform="translate(516.6170679847961 260.16882374944) rotate(0 -124.41655909873964 0)"><path d="M-225.81 6.75 C-233.97 4.52, -240.19 2.9, -249.32 -1.75 M-225.81 6.75 C-230.17 5.33, -234.72 2.18, -249.32 -1.75" stroke="#1e1e1e" stroke-width="1" fill="none"></path></g></g><mask></mask><g transform="translate(265.01359775530943 267.3294890213092) rotate(0 106.5999984741211 16.799999999999955)"><text x="106.5999984741211" y="27.0375" font-family="Cascadia, Segoe UI Emoji" font-size="28px" fill="#1e1e1e" text-anchor="middle" style="white-space: pre;" direction="ltr" dominant-baseline="alphabetic">app layer TLS</text></g><g stroke-linecap="round"><g transform="translate(756.395823344502 457.9822018848463) rotate(0 193.3379623404876 -1.7901663179675324)"><path d="M0.51 -0.51 C64.81 -1.02, 322.15 -2.79, 386.59 -3.35 M-0.68 -1.82 C63.38 -2.69, 321.05 -5.2, 385.6 -5.35" stroke="#1e1e1e" stroke-width="1" fill="none"></path></g><g transform="translate(756.395823344502 457.9822018848463) rotate(0 193.3379623404876 -1.7901663179675324)"><path d="M362.16 3.35 C369.93 -0.08, 379.74 -2.35, 385.6 -5.35 M362.16 3.35 C367.64 0.41, 376.01 -0.78, 385.6 -5.35" stroke="#1e1e1e" stroke-width="1" fill="none"></path></g><g transform="translate(756.395823344502 457.9822018848463) rotate(0 193.3379623404876 -1.7901663179675324)"><path d="M362.05 -13.75 C369.81 -10.91, 379.67 -6.92, 385.6 -5.35 M362.05 -13.75 C367.59 -11.99, 376 -8.48, 385.6 -5.35" stroke="#1e1e1e" stroke-width="1" fill="none"></path></g></g><mask></mask><g stroke-linecap="round"><g transform="translate(1137.7012490715747 490.20519560826096) rotate(0 -190.6527128635363 0.8950831589836525)"><path d="M0.07 1.19 C-63.6 1.33, -318.41 0.85, -382.17 1.13 M-1.35 0.77 C-64.63 1.02, -316.77 2.26, -379.9 2.32" stroke="#1e1e1e" stroke-width="1" fill="none"></path></g><g transform="translate(1137.7012490715747 490.20519560826096) rotate(0 -190.6527128635363 0.8950831589836525)"><path d="M-356.44 -6.31 C-361.23 -5.23, -371.11 -3.21, -379.9 2.32 M-356.44 -6.31 C-365.17 -2.82, -375.05 -0.16, -379.9 2.32" stroke="#1e1e1e" stroke-width="1" fill="none"></path></g><g transform="translate(1137.7012490715747 490.20519560826096) rotate(0 -190.6527128635363 0.8950831589836525)"><path d="M-356.39 10.79 C-361.23 6.92, -371.13 3.98, -379.9 2.32 M-356.39 10.79 C-365.05 7.62, -374.95 3.62, -379.9 2.32" stroke="#1e1e1e" stroke-width="1" fill="none"></path></g></g><mask></mask><g stroke-linecap="round"><g transform="translate(1069.6749289888107 924.0249112835409) rotate(0 76.45507199679093 -189.16227990914422)"><path d="M-0.69 -0.26 C24.95 -63.37, 127.22 -315.79, 152.81 -378.99 M1.14 -1.44 C26.71 -64.38, 126.66 -314.92, 151.81 -377.8" stroke="#1e1e1e" stroke-width="1" fill="none"></path></g><g transform="translate(1069.6749289888107 924.0249112835409) rotate(0 76.45507199679093 -189.16227990914422)"><path d="M151.03 -352.81 C150.83 -358.25, 150.32 -363.52, 151.81 -377.8 M151.03 -352.81 C150.78 -357, 150.51 -362.43, 151.81 -377.8" stroke="#1e1e1e" stroke-width="1" fill="none"></path></g><g transform="translate(1069.6749289888107 924.0249112835409) rotate(0 76.45507199679093 -189.16227990914422)"><path d="M135.15 -359.16 C138.28 -363.16, 141.13 -367.09, 151.81 -377.8 M135.15 -359.16 C138.18 -362.19, 141.17 -366.32, 151.81 -377.8" stroke="#1e1e1e" stroke-width="1" fill="none"></path></g></g><mask></mask><g stroke-linecap="round"><g transform="translate(1260.7339322039193 543.9101851472851) rotate(0 -91.94916897161937 208.25628145380983)"><path d="M-0.68 0.28 C-31.38 69.97, -153.9 348.15, -184.46 417.65 M1.17 -0.62 C-29.72 68.81, -154.7 346.8, -185.7 416.13" stroke="#1e1e1e" stroke-width="1" fill="none"></path></g><g transform="translate(1260.7339322039193 543.9101851472851) rotate(0 -91.94916897161937 208.25628145380983)"><path d="M-183.89 391.19 C-184.04 397.23, -183.11 404.98, -185.7 416.13 M-183.89 391.19 C-185.55 399.67, -185.04 409.87, -185.7 416.13" stroke="#1e1e1e" stroke-width="1" fill="none"></path></g><g transform="translate(1260.7339322039193 543.9101851472851) rotate(0 -91.94916897161937 208.25628145380983)"><path d="M-168.28 398.19 C-172.77 402.18, -176.21 407.97, -185.7 416.13 M-168.28 398.19 C-175.55 404.06, -180.72 411.72, -185.7 416.13" stroke="#1e1e1e" stroke-width="1" fill="none"></path></g></g><mask></mask><g stroke-linecap="round"><g transform="translate(853.0648045147458 902.7816477751385) rotate(0 -74.63310085403396 -175.85539867799162)"><path d="M-0.19 -0.45 C-24.92 -58.92, -124.07 -292.35, -148.81 -350.99 M-1.75 -1.73 C-26.55 -60.53, -124.97 -294.47, -149.52 -352.73" stroke="#1e1e1e" stroke-width="1" fill="none"></path></g><g transform="translate(853.0648045147458 902.7816477751385) rotate(0 -74.63310085403396 -175.85539867799162)"><path d="M-132.52 -334.4 C-137.68 -338.44, -140.15 -342.92, -149.52 -352.73 M-132.52 -334.4 C-135.96 -338.75, -140.24 -344.3, -149.52 -352.73" stroke="#1e1e1e" stroke-width="1" fill="none"></path></g><g transform="translate(853.0648045147458 902.7816477751385) rotate(0 -74.63310085403396 -175.85539867799162)"><path d="M-148.28 -327.76 C-149.32 -333.51, -147.69 -339.72, -149.52 -352.73 M-148.28 -327.76 C-147.77 -333.65, -148.1 -340.87, -149.52 -352.73" stroke="#1e1e1e" stroke-width="1" fill="none"></path></g></g><mask></mask><g stroke-linecap="round"><g transform="translate(650.1205969156126 554.6511830550899) rotate(0 97.89177116363166 192.93247365729212)"><path d="M-0.04 -0.07 C32.7 64.52, 162.75 322, 195.54 386.35 M-1.51 -1.15 C31.11 63.18, 161.47 319.72, 194.46 384.47" stroke="#1e1e1e" stroke-width="1" fill="none"></path></g><g transform="translate(650.1205969156126 554.6511830550899) rotate(0 97.89177116363166 192.93247365729212)"><path d="M176.19 367.41 C180.1 370.92, 185.2 376.78, 194.46 384.47 M176.19 367.41 C182.42 371.75, 187.59 377.96, 194.46 384.47" stroke="#1e1e1e" stroke-width="1" fill="none"></path></g><g transform="translate(650.1205969156126 554.6511830550899) rotate(0 97.89177116363166 192.93247365729212)"><path d="M191.43 359.66 C191.78 364.94, 193.38 372.58, 194.46 384.47 M191.43 359.66 C192.91 366.43, 193.34 375.04, 194.46 384.47" stroke="#1e1e1e" stroke-width="1" fill="none"></path></g></g><mask></mask><g stroke-linecap="round"><g transform="translate(1370.4228704073466 443.82593882177025) rotate(0 62.65582112886159 0.25025758998344827)"><path d="M-0.62 -1.05 C20.07 -0.87, 104.3 1.16, 125.29 1.59 M1.26 1.01 C21.68 0.84, 103.78 0.26, 124.32 0.03" stroke="#1e1e1e" stroke-width="1" fill="none"></path></g><g transform="translate(1370.4228704073466 443.82593882177025) rotate(0 62.65582112886159 0.25025758998344827)"><path d="M100.91 8.79 C108.41 5.4, 121.25 1.94, 124.32 0.03 M100.91 8.79 C110.17 6.14, 118.4 2.45, 124.32 0.03" stroke="#1e1e1e" stroke-width="1" fill="none"></path></g><g transform="translate(1370.4228704073466 443.82593882177025) rotate(0 62.65582112886159 0.25025758998344827)"><path d="M100.76 -8.31 C108.38 -4.92, 121.29 -1.6, 124.32 0.03 M100.76 -8.31 C110.07 -4.41, 118.36 -1.55, 124.32 0.03" stroke="#1e1e1e" stroke-width="1" fill="none"></path></g></g><mask></mask><g stroke-linecap="round"><g transform="translate(1490.3640137111674 477.1275462785379) rotate(0 -61.76073796987794 -0.046294787443230234)"><path d="M-0.21 -0.69 C-20.77 -0.35, -102.89 0.73, -123.62 0.92 M-1.78 1.57 C-22.49 1.69, -104.54 -0.14, -124.61 -0.67" stroke="#1e1e1e" stroke-width="1" fill="none"></path></g><g transform="translate(1490.3640137111674 477.1275462785379) rotate(0 -61.76073796987794 -0.046294787443230234)"><path d="M-100.93 -8.67 C-108.76 -6.63, -112.54 -5.98, -124.61 -0.67 M-100.93 -8.67 C-108.79 -6.26, -117.44 -3, -124.61 -0.67" stroke="#1e1e1e" stroke-width="1" fill="none"></path></g><g transform="translate(1490.3640137111674 477.1275462785379) rotate(0 -61.76073796987794 -0.046294787443230234)"><path d="M-101.33 8.43 C-108.89 5.69, -112.56 1.57, -124.61 -0.67 M-101.33 8.43 C-109.03 4.96, -117.54 2.33, -124.61 -0.67" stroke="#1e1e1e" stroke-width="1" fill="none"></path></g></g><mask></mask><g transform="translate(909.7731211760589 413.22804393565957) rotate(0 32.79999923706055 16.799999999999955)"><text x="32.79999923706055" y="27.0375" font-family="Cascadia, Segoe UI Emoji" font-size="28px" fill="#1e1e1e" text-anchor="middle" style="white-space: pre;" direction="ltr" dominant-baseline="alphabetic">mTLS</text></g><g transform="translate(1176.5079025532132 763.4121391189915) rotate(0 32.79999923706055 16.799999999999955)"><text x="32.79999923706055" y="27.0375" font-family="Cascadia, Segoe UI Emoji" font-size="28px" fill="#1e1e1e" text-anchor="middle" style="white-space: pre;" direction="ltr" dominant-baseline="alphabetic">mTLS</text></g><g transform="translate(1414.600022842888 394.63787761769163) rotate(0 32.79999923706055 16.799999999999955)"><text x="32.79999923706055" y="27.0375" font-family="Cascadia, Segoe UI Emoji" font-size="28px" fill="#1e1e1e" text-anchor="middle" style="white-space: pre;" direction="ltr" dominant-baseline="alphabetic">mTLS</text></g><g transform="translate(686.0023314301244 786.6843012525701) rotate(0 32.79999923706055 16.799999999999955)"><text x="32.79999923706055" y="27.0375" font-family="Cascadia, Segoe UI Emoji" font-size="28px" fill="#1e1e1e" text-anchor="middle" style="white-space: pre;" direction="ltr" dominant-baseline="alphabetic">mTLS</text></g><g transform="translate(1499.547824205984 216.3097489592369) rotate(0 139.39999389648438 16.799999999999955)"><text x="139.39999389648438" y="27.0375" font-family="Cascadia, Segoe UI Emoji" font-size="28px" fill="#1e1e1e" text-anchor="middle" style="white-space: pre;" direction="ltr" dominant-baseline="alphabetic">Runtime DB secret</text></g></svg>